<svg width="64" height="64" viewBox="0 0 64 64" fill="none" xmlns="http://www.w3.org/2000/svg">
<g clip-path="url(#clip0_65_22)">
<path d="M32 64C46.0222 64 53.8174 64 58.9087 58.9087C64 53.8174 64 46.0222 64 32C64 17.9778 64 10.1826 58.9087 5.09131C53.8174 -9.53674e-07 46.0222 0 32 0C17.9778 0 10.1826 -9.53674e-07 5.09131 5.09131C-9.53674e-07 10.1826 0 17.9778 0 32C0 46.0222 -9.53674e-07 53.8174 5.09131 58.9087C10.1826 64 17.9778 64 32 64Z" fill="url(#paint0_linear_65_22)"/>
<path d="M31.9768 47C29.8039 47 27.8044 46.64 25.9781 45.92C24.1518 45.2 22.5655 44.18 21.2191 42.86C19.8717 41.5518 18.8096 39.9788 18.0998 38.24C17.3666 36.4667 17 34.54 17 32.46C17 29.98 17.3799 27.78 18.1398 25.86C18.9129 23.94 19.9794 22.3267 21.3391 21.02C22.7038 19.7052 24.3234 18.6842 26.0981 18.02C27.911 17.34 29.8506 17 31.9168 17C34.4496 17 36.6691 17.3933 38.5754 18.18C40.4817 18.9667 42.068 20.0333 43.3344 21.38C44.5877 22.7052 45.5483 24.2793 46.1538 26C46.767 27.72 47.0469 29.52 46.9936 31.4C46.927 33.9867 46.3871 35.9733 45.374 37.36C44.3608 38.7333 42.7878 39.42 40.655 39.42C39.5594 39.4293 38.4794 39.161 37.5156 38.64C36.5944 38.1497 35.8939 37.3275 35.556 36.34L36.7158 36.4C36.1692 37.4267 35.4227 38.1467 34.4763 38.56C33.5635 38.9662 32.5759 39.1773 31.5769 39.18C30.2305 39.18 29.0441 38.8933 28.0177 38.32C26.9984 37.7406 26.1606 36.8888 25.5982 35.86C25.0116 34.8067 24.7184 33.5867 24.7184 32.2C24.7184 30.7733 25.025 29.54 25.6382 28.5C26.224 27.4736 27.0821 26.6292 28.1176 26.06C29.1574 25.4867 30.3305 25.2 31.6369 25.2C32.5034 25.2 33.4032 25.38 34.3363 25.74C35.2828 26.1 36.0159 26.6067 36.5358 27.26L35.716 28.3V25.76H38.3954L38.3355 32.94C38.3355 33.9667 38.5354 34.74 38.9353 35.26C39.3352 35.78 39.9284 36.04 40.7149 36.04C41.4081 36.04 41.9413 35.8467 42.3146 35.46C42.7012 35.06 42.9678 34.52 43.1144 33.84C43.2853 33.0712 43.3791 32.2874 43.3944 31.5C43.4344 29.4333 43.1278 27.6933 42.4746 26.28C41.8214 24.8667 40.9349 23.7267 39.8151 22.86C38.7322 21.9922 37.4887 21.3465 36.1559 20.96C34.8229 20.56 33.4965 20.36 32.1768 20.36C30.3105 20.36 28.6508 20.66 27.1978 21.26C25.7448 21.8467 24.5184 22.68 23.5186 23.76C22.5322 24.8267 21.7856 26.0933 21.2791 27.56C20.7859 29.0133 20.5526 30.6133 20.5792 32.36C20.6326 34.0933 20.9458 35.6533 21.519 37.04C22.0616 38.3812 22.8789 39.5939 23.9185 40.6C24.962 41.5973 26.2013 42.3669 27.5577 42.86C28.9574 43.38 30.4905 43.64 32.1568 43.64C33.0899 43.64 34.0164 43.5333 34.9362 43.32C35.8693 43.12 36.7225 42.8333 37.4956 42.46L38.6354 45.58C37.6089 46.06 36.5292 46.4133 35.3961 46.64C34.2722 46.8804 33.1261 47.0011 31.9768 47ZM31.8168 35.78C32.7633 35.78 33.5565 35.5067 34.1963 34.96C34.8362 34.4133 35.1561 33.4867 35.1561 32.18C35.1561 30.9933 34.8695 30.1 34.2963 29.5C33.7364 28.8867 32.9433 28.58 31.9168 28.58C30.7037 28.58 29.7973 28.9 29.1974 29.54C28.5975 30.18 28.2976 31.06 28.2976 32.18C28.2976 33.3267 28.6042 34.2133 29.2174 34.84C29.8439 35.4667 30.7104 35.78 31.8168 35.78Z" fill="url(#paint1_linear_65_22)"/>
</g>
<defs>
<linearGradient id="paint0_linear_65_22" x1="0" y1="0" x2="64" y2="64" gradientUnits="userSpaceOnUse">
<stop stop-color="#0C0C0C" stop-opacity="0.24"/>
<stop offset="1" stop-color="#242424" stop-opacity="0.16"/>
</linearGradient>
<linearGradient id="paint1_linear_65_22" x1="39.6074" y1="45.3333" x2="24.0809" y2="18.7448" gradientUnits="userSpaceOnUse">
<stop stop-color="#999999"/>
<stop offset="0.5" stop-color="white"/>
<stop offset="1" stop-color="#B3B3B3"/>
</linearGradient>
<clipPath id="clip0_65_22">
<rect width="64" height="64" fill="white"/>
</clipPath>
</defs>
</svg>
