<svg width="64" height="64" viewBox="0 0 64 64" fill="none" xmlns="http://www.w3.org/2000/svg">
<g clip-path="url(#clip0_65_25)">
<path d="M32 64C46.0222 64 53.8174 64 58.9087 58.9087C64 53.8174 64 46.0222 64 32C64 17.9778 64 10.1826 58.9087 5.09131C53.8174 -9.53674e-07 46.0222 0 32 0C17.9778 0 10.1826 -9.53674e-07 5.09131 5.09131C-9.53674e-07 10.1826 0 17.9778 0 32C0 46.0222 -9.53674e-07 53.8174 5.09131 58.9087C10.1826 64 17.9778 64 32 64Z" fill="url(#paint0_linear_65_25)"/>
<path d="M38.1304 46.8H32.4V43.8616C32.4009 43.5898 32.3467 43.3207 32.2408 43.0705C32.1348 42.8202 31.9793 42.594 31.7835 42.4055C31.2904 41.9195 30.573 41.6463 29.8183 41.6573C29.1469 41.6636 28.4993 41.9065 27.9894 42.3432C27.6551 42.6389 27.2572 43.1506 27.2572 43.913V46.8H21.5756C20.6276 46.799 19.7187 46.4219 19.0484 45.7516C18.3781 45.0813 18.001 44.1725 18 43.2245V37.5431H20.9385C21.5274 37.5431 22.1002 37.2911 22.5515 36.8359C22.8025 36.5829 23.0011 36.2827 23.1357 35.9526C23.2703 35.6225 23.3383 35.269 23.3357 34.9126C23.3165 33.5504 22.1953 32.4003 20.8871 32.4003H18V26.6572C17.9982 26.1891 18.0914 25.7255 18.2741 25.2946C18.4567 24.8636 18.725 24.4743 19.0627 24.1501C19.737 23.4997 20.6387 23.1384 21.5756 23.1434H25.641V22.2126C25.641 21.6531 25.7524 21.0993 25.9688 20.5834C26.1851 20.0675 26.5021 19.5999 26.9011 19.2078C27.3002 18.8157 27.7733 18.507 28.2929 18.2998C28.8125 18.0925 29.3682 17.9908 29.9276 18.0006C32.2091 18.0405 34.065 19.9536 34.065 22.2646V23.1434H38.1304C38.595 23.1384 39.0558 23.2262 39.4859 23.4017C39.9161 23.5771 40.3068 23.8367 40.6353 24.1652C40.9638 24.4937 41.2234 24.8844 41.3989 25.3146C41.5743 25.7447 41.6621 26.2055 41.6571 26.67V30.7354H42.5353C44.8869 30.7354 46.8 32.5996 46.8 34.8907C46.8 37.2441 44.9106 39.1592 42.588 39.1592H41.6571V43.2245C41.6571 45.1961 40.0751 46.8 38.1304 46.8Z" fill="url(#paint1_linear_65_25)"/>
</g>
<defs>
<linearGradient id="paint0_linear_65_25" x1="0" y1="0" x2="64" y2="64" gradientUnits="userSpaceOnUse">
<stop stop-color="#0C0C0C" stop-opacity="0.24"/>
<stop offset="1" stop-color="#242424" stop-opacity="0.16"/>
</linearGradient>
<linearGradient id="paint1_linear_65_25" x1="19.9001" y1="18" x2="44.8999" y2="46.8" gradientUnits="userSpaceOnUse">
<stop stop-color="white"/>
<stop offset="1" stop-color="#D4D4D4"/>
</linearGradient>
<clipPath id="clip0_65_25">
<rect width="64" height="64" fill="white"/>
</clipPath>
</defs>
</svg>
