<svg width="64" height="64" viewBox="0 0 64 64" fill="none" xmlns="http://www.w3.org/2000/svg">
<g clip-path="url(#clip0_8_20)">
<path d="M32 64C46.0222 64 53.8174 64 58.9087 58.9087C64 53.8174 64 46.0222 64 32C64 17.9778 64 10.1826 58.9087 5.09131C53.8174 -9.53674e-07 46.0222 0 32 0C17.9778 0 10.1826 -9.53674e-07 5.09131 5.09131C-9.53674e-07 10.1826 0 17.9778 0 32C0 46.0222 -9.53674e-07 53.8174 5.09131 58.9087C10.1826 64 17.9778 64 32 64Z" fill="url(#paint0_linear_8_20)"/>
<path fill-rule="evenodd" clip-rule="evenodd" d="M22.9394 26.9886C21.1698 25.9222 20 24.0761 20 21.9771C20 18.6761 22.8937 16 26.4632 16H37.5368C41.1063 16 44 18.6761 44 21.9771C44 24.0761 42.8302 25.9222 41.0606 26.9886C42.8302 28.0549 44 29.9012 44 32.0001C44 35.3011 41.1063 37.9772 37.5368 37.9772H37.419C35.7316 37.9772 34.1953 37.3792 33.0442 36.3999V41.9684C33.0442 45.3063 30.0872 48 26.4925 48C22.9303 48 20 45.3307 20 42.0229C20 39.924 21.1698 38.0778 22.9393 37.0115C21.1698 35.9451 20 34.0989 20 32.0001C20 29.9012 21.1698 28.0549 22.9394 26.9886ZM33.0442 32.0001C33.0442 34.2345 35.0029 36.0458 37.419 36.0458H37.5368C39.9529 36.0458 41.9115 34.2345 41.9115 32.0001C41.9115 29.7657 39.9529 27.9543 37.5368 27.9543H37.419C35.0029 27.9543 33.0442 29.7657 33.0442 32.0001ZM30.9558 27.9543H26.4632C24.0471 27.9543 22.0885 29.7657 22.0885 32.0001C22.0885 34.2299 24.0392 36.0384 26.4485 36.0458H26.4554H30.9558V27.9543ZM26.4632 37.9772C26.4583 37.9772 26.4534 37.9772 26.4485 37.9772C24.0392 37.9845 22.0885 39.793 22.0885 42.0229C22.0885 44.2505 24.0691 46.0686 26.4925 46.0686C28.9485 46.0686 30.9558 44.2261 30.9558 41.9684V37.9772H26.4632ZM30.9558 26.0228H26.4632C24.0471 26.0228 22.0885 24.2115 22.0885 21.9771C22.0885 19.7427 24.0471 17.9314 26.4632 17.9314H30.9558V26.0228ZM37.5368 26.0228H33.0442V17.9314H37.5368C39.9529 17.9314 41.9115 19.7427 41.9115 21.9771C41.9115 24.2115 39.9529 26.0228 37.5368 26.0228Z" fill="url(#paint1_linear_8_20)" stroke="url(#paint2_linear_8_20)" stroke-width="1.2"/>
</g>
<defs>
<linearGradient id="paint0_linear_8_20" x1="0" y1="0" x2="64" y2="64" gradientUnits="userSpaceOnUse">
<stop stop-color="#0C0C0C"/>
<stop offset="1" stop-color="#242424"/>
</linearGradient>
<linearGradient id="paint1_linear_8_20" x1="21.5834" y1="16" x2="49.3424" y2="39.984" gradientUnits="userSpaceOnUse">
<stop stop-color="white"/>
<stop offset="1" stop-color="#D4D4D4"/>
</linearGradient>
<linearGradient id="paint2_linear_8_20" x1="32" y1="16" x2="32" y2="48" gradientUnits="userSpaceOnUse">
<stop stop-color="#F7F7F7"/>
<stop offset="1" stop-color="#DBDBDB"/>
</linearGradient>
<clipPath id="clip0_8_20">
<rect width="64" height="64" fill="white"/>
</clipPath>
</defs>
</svg>
