<svg width="946" height="33" viewBox="0 0 946 33" fill="none" xmlns="http://www.w3.org/2000/svg">
<path d="M946 8.71358C933.09 10.1455 919.147 10.4658 904.687 10.202C898.593 10.089 892.603 9.69333 886.612 9.46723C879.899 9.2223 872.979 8.75126 866.369 8.84546C855.111 8.99619 844.267 9.22228 836.211 7.37583C820.821 6.84828 805.536 5.92505 789.217 6.9048C788.804 7.5454 788.494 8.12949 787.978 8.93967C776.513 8.78894 767.941 9.99478 758.955 11.1253C742.12 13.2166 725.801 15.5718 704.009 16.3066C690.582 15.7979 680.254 14.366 674.263 11.8601C672.404 11.0876 669.099 10.3904 665.691 9.78753C660.32 8.84546 653.813 8.52517 646.79 9.18462C637.495 10.0702 627.58 10.5223 617.251 10.7108C607.336 10.8992 599.28 11.992 591.741 13.0471C577.384 15.0631 561.685 16.5327 544.85 17.6632C541.648 17.8705 538.24 18.0212 534.935 18.1154C515.621 18.6618 509.218 18.0212 501.575 14.6863C498.889 13.5369 497.237 12.3123 494.861 11.1253C489.594 8.50631 478.336 7.84688 465.839 9.56144C458.196 10.6166 451.896 12.0108 442.704 12.6137C421.118 14.0645 405.315 17.1356 385.692 19.1328C373.917 20.3198 361.214 20.6966 348.716 21.2619C341.28 21.601 330.952 20.8662 328.576 18.8125C326.304 16.853 324.135 14.8935 321.553 12.934C319.384 11.2195 312.774 10.5035 304.925 11.4456C282.409 14.1587 257.105 15.7791 232.73 17.7385C209.285 19.6227 184.6 20.7532 159.089 21.0735C146.799 21.2242 136.264 20.3198 128.311 18.5299C126.246 18.0589 124.18 17.569 121.701 17.0038C108.688 17.5878 99.3922 19.0763 90.0967 20.5271C64.0695 24.6156 38.4553 28.7795 12.5314 32.9058C12.1182 32.9812 11.1888 32.9623 10.5691 33C-1.10185 30.984 -2.96104 30.2115 4.26875 28.3085C12.4281 26.1606 20.8973 23.8808 32.0518 22.2982C60.248 18.3226 86.7917 14.0457 112.922 9.65565C113.852 9.50492 115.401 9.44838 117.776 9.25996C119.842 9.56142 122.631 9.86289 124.903 10.2774C129.138 11.0876 133.166 11.9543 137.194 12.821C145.559 14.6109 155.475 15.3646 168.385 14.6486C172.206 14.4413 176.441 14.3283 180.469 14.3471C188.732 14.3848 197.098 14.6297 202.675 13.1036C226.636 12.3311 245.021 9.01503 269.086 8.29906C271.668 8.2237 274.456 7.99761 276.625 7.69615C290.568 5.83086 307.197 5.68012 323.516 5.09604C332.501 6.54682 337.459 8.24254 338.388 10.3528C338.801 11.2195 339.008 12.1239 340.041 12.9717C342.933 15.1385 355.636 16.0617 365.655 14.8558C370.612 14.2718 374.227 13.1413 381.767 13.6877C382.077 13.7065 383.729 13.3862 384.039 13.179C387.241 11.4267 394.987 10.7296 403.663 10.1455C411.409 9.6368 418.845 8.97735 426.385 8.39327C427.624 8.29906 429.174 8.20485 429.897 8.03528C444.46 4.75689 465.839 3.58875 485.669 1.93071C487.425 1.77998 489.284 1.61041 490.73 1.47852C500.852 2.10028 504.777 3.47569 506.429 5.17141C507.359 6.15116 507.255 7.24395 509.734 8.09181C519.649 11.5209 528.841 11.9731 548.259 10.2586C570.464 8.29906 592.773 6.3961 614.463 4.21051C625.204 3.13655 637.391 2.55247 649.166 1.87418C653.607 1.6104 658.668 1.62925 663.522 1.66693C673.024 1.72346 680.667 2.43943 685.624 4.00326C689.756 5.30331 693.887 6.60334 698.535 7.84686C700.704 8.44979 704.112 8.90198 707.107 9.44838C721.05 8.07296 734.477 6.84828 747.387 5.47286C761.64 3.96556 775.48 2.34521 792.625 2.06259C795.827 2.00607 799.132 1.64809 801.714 1.29011C812.662 -0.23604 824.849 -0.254881 837.037 0.442247C855.421 1.47852 874.218 2.13797 893.222 2.68437C903.344 2.98583 912.95 3.75832 922.968 4.21051C936.085 4.77575 943.005 6.26421 946 8.71358ZM447.558 8.3179C446.732 8.24253 445.905 8.16717 445.079 8.11065C445.286 8.20485 445.389 8.35558 445.905 8.4121C446.215 8.43094 447.042 8.35558 447.558 8.3179ZM484.327 3.45685L483.294 3.32495L483.087 3.53222L484.327 3.45685Z" fill="#FFE66D"/>
<path d="M447.856 11.1974C447.236 11.2481 446.513 11.3496 446.203 11.2989C445.79 11.2481 445.687 11.0452 445.377 10.8931C446.203 11.0199 447.03 11.096 447.856 11.1974Z" fill="white"/>
<path d="M484.626 4.65364L483.388 4.7551L483.491 4.47607L484.626 4.65364Z" fill="white"/>
</svg>
