<svg width="106" height="30" viewBox="0 0 106 30" fill="none" xmlns="http://www.w3.org/2000/svg">
<path d="M95.7422 19.3359C95.6934 19.3359 95.6445 19.3262 95.5957 19.3066C95.4688 19.2383 95.4004 19.1406 95.4004 19.0137C95.4004 18.9746 95.4102 18.9453 95.4199 18.9062C95.9766 17.0605 96.7383 14.9805 97.6953 12.6855C98.6426 10.3906 99.5801 8.36914 100.488 6.60156C101.523 4.58984 102.256 3.58398 102.686 3.58398C102.764 3.58398 102.842 3.60352 102.92 3.65234C103.027 3.7207 103.076 3.81836 103.076 3.93555C103.076 3.99414 103.057 4.05273 103.027 4.11133C102.949 4.21875 102.852 4.26758 102.734 4.26758H102.715C102.217 4.7168 101.357 6.23047 100.137 8.80859C98.9062 11.3965 97.7637 14.1504 96.7188 17.0801C97.2949 16.3379 97.9395 15.6543 98.6719 15.0195C99.4043 14.3945 100.098 14.082 100.771 14.0723C101.133 14.1016 101.318 14.3457 101.318 14.8145C101.318 15.166 101.211 15.625 100.996 16.1816C100.703 17.0508 100.566 17.6758 100.566 18.0762C100.566 18.1934 100.576 18.2812 100.605 18.3496L100.674 18.4668C100.703 18.4863 100.752 18.4961 100.84 18.4961C101.475 18.4961 102.852 17.5488 104.971 15.6445C105.039 15.5859 105.107 15.5566 105.186 15.5566C105.195 15.5566 105.225 15.5566 105.273 15.5566C105.322 15.5664 105.381 15.5957 105.439 15.6641C105.498 15.7324 105.527 15.8105 105.527 15.8789V15.9668C105.527 16.0156 105.488 16.0742 105.42 16.1426C103.193 18.1641 101.65 19.1797 100.781 19.1797C100.605 19.1797 100.459 19.1309 100.342 19.0527C100.127 18.916 99.9902 18.7305 99.9414 18.4961C99.9023 18.3398 99.8926 18.1836 99.8926 18.0273C99.8926 17.5684 100.039 16.8848 100.352 15.9766C100.547 15.3125 100.654 14.9023 100.664 14.7363C100.166 14.7852 99.6094 15.0781 98.9941 15.625C98.3789 16.1816 97.8027 16.7969 97.2656 17.4805C96.7188 18.1738 96.3086 18.7402 96.0254 19.1797C95.9473 19.2871 95.8496 19.3359 95.7422 19.3359Z" fill="#E0E0E0"/>
<path d="M83.9648 29.9023C83.8477 29.9023 83.7598 29.8535 83.7012 29.7754C83.6523 29.7168 83.6328 29.6484 83.6328 29.5703V29.5215C83.8086 28.3984 84.3164 26.6895 85.1465 24.4043C85.9766 22.1191 86.875 19.9414 87.8223 17.8613C89.0332 15.2246 89.9023 13.9062 90.4199 13.9062H90.4883C90.6836 13.9453 90.7715 14.0527 90.7715 14.2383V14.2969C90.7324 14.4727 90.625 14.5703 90.459 14.5801C90.2734 14.707 89.9805 15.127 89.5996 15.8398C90.8789 14.5215 91.9434 13.8574 92.8125 13.8574C93.2031 13.8574 93.5156 14.0039 93.75 14.3066C93.8574 14.4531 93.916 14.6289 93.916 14.8438C93.916 15.1074 93.8281 15.4297 93.6426 15.791C93.1738 16.6992 92.3926 17.5879 91.3086 18.4375C92.5293 18.0664 94.2578 17.1484 96.4844 15.6836C96.543 15.6445 96.6016 15.625 96.6699 15.625C96.7773 15.625 96.875 15.6738 96.9531 15.7715C96.9922 15.8398 97.002 15.8984 97.002 15.9668C97.002 16.084 96.9531 16.1719 96.8555 16.2402C93.5742 18.4277 91.0352 19.5215 89.248 19.5215C88.6426 19.5215 88.2129 19.4336 87.959 19.2578C87.1191 21.1621 86.3379 23.1055 85.625 25.0684C84.9121 27.041 84.4629 28.5547 84.2969 29.6094C84.2676 29.8047 84.1602 29.9023 83.9648 29.9023ZM88.8477 18.7891C89.5801 18.7891 90.3711 18.418 91.2207 17.666C92.0703 16.9238 92.6758 16.2012 93.0469 15.498C93.1738 15.2148 93.2422 15 93.2422 14.834C93.2422 14.7754 93.2324 14.7266 93.2031 14.6973C93.1836 14.668 93.1445 14.6289 93.0859 14.5898C93.0176 14.5508 92.9297 14.5312 92.8125 14.5312C92.334 14.5312 91.6797 14.8926 90.8301 15.6055C89.9805 16.3281 89.1309 17.3438 88.2715 18.6426C88.457 18.7402 88.6426 18.7891 88.8477 18.7891Z" fill="#E0E0E0"/>
<path d="M83.75 19.4141H83.5254C82.8125 19.4141 82.3438 19.1602 82.1387 18.6621C82.0508 18.4473 82.0117 18.2129 82.0117 17.9688C82.0117 17.5977 82.1387 17.1191 82.3828 16.5234C82.627 15.9375 83.0371 15.3711 83.5938 14.8145C84.1895 14.2383 84.7754 13.9551 85.332 13.9551C85.5957 13.9551 85.791 14.0234 85.9473 14.1602C86.0742 14.2773 86.1426 14.4336 86.1426 14.6289C86.1426 14.8145 86.0449 15.0293 85.8398 15.2734C85.2441 15.8887 84.3555 16.2988 83.1543 16.5039C82.8418 17.0801 82.6855 17.5586 82.6855 17.9688C82.6855 18.1152 82.7051 18.2617 82.7539 18.3887C82.8613 18.623 83.1152 18.75 83.5156 18.75L83.7012 18.7402C84.3164 18.6719 84.9316 18.4863 85.5273 18.1836C86.543 17.666 87.4707 16.9922 88.3301 16.1523C88.623 15.8691 88.7793 15.7129 88.7891 15.6836C88.8574 15.6152 88.9453 15.5762 89.0527 15.5762C89.1309 15.5762 89.209 15.6055 89.2773 15.6738C89.3457 15.7422 89.375 15.8203 89.375 15.9277C89.375 16.0059 89.3457 16.0742 89.2969 16.1426C89.2383 16.2109 88.9453 16.4941 88.4082 16.9922C87.8711 17.4902 87.1973 17.9883 86.377 18.4961C85.5469 19.0039 84.6777 19.3066 83.75 19.4141ZM83.7012 15.6934C84.5117 15.4395 85.0586 15.1465 85.332 14.8145C85.4102 14.7266 85.4492 14.668 85.459 14.6387C85.4297 14.6191 85.3906 14.6191 85.3418 14.6191C85.2148 14.6191 85.0391 14.668 84.8145 14.7559C84.4531 14.9121 84.082 15.2148 83.7012 15.6934Z" fill="#E0E0E0"/>
<path d="M76.1719 20.0879H76.1523C75.8691 20.0879 75.6934 20 75.6055 19.834C75.5762 19.7656 75.5566 19.707 75.5566 19.6484C75.5566 19.375 75.8008 19.0332 76.2793 18.6328C76.7676 18.2324 77.4219 17.8125 78.252 17.373L77.9102 17.1973C77.666 17.0898 77.4512 16.9727 77.2461 16.8359C76.9336 16.6406 76.7871 16.3965 76.7871 16.1035C76.7871 15.6934 77.1582 15.2051 77.9102 14.6289C78.8281 13.916 79.5215 13.5645 79.9902 13.5645C80.2051 13.5645 80.3711 13.623 80.498 13.7598C80.5859 13.8672 80.6348 13.9844 80.6348 14.1309C80.6348 14.3457 80.5273 14.5996 80.3223 14.9023C80.2539 15 80.1562 15.0488 80.0391 15.0488C79.9707 15.0488 79.9121 15.0293 79.8535 14.9902C79.7559 14.9219 79.707 14.8242 79.707 14.707C79.707 14.6387 79.7266 14.5801 79.7656 14.5215C79.8535 14.3945 79.9023 14.2969 79.9316 14.2383C79.834 14.248 79.6875 14.2969 79.502 14.3848C79.1016 14.5898 78.7109 14.8535 78.3203 15.1562C77.9297 15.4688 77.666 15.7324 77.5195 15.957C77.4805 16.0059 77.4707 16.0547 77.4707 16.0938C77.4707 16.2109 77.7051 16.3672 78.1934 16.5918C78.4766 16.709 78.7207 16.8457 78.9453 17.0117C80.2246 16.377 81.5332 15.8398 82.8711 15.4102L82.9688 15.4004C83.0273 15.4004 83.0859 15.4102 83.1445 15.4492C83.252 15.5078 83.3105 15.6055 83.3105 15.7422C83.3105 15.9082 83.2227 16.0059 83.0664 16.0547C81.6309 16.5234 80.3613 17.041 79.2578 17.6074V17.627C79.2578 17.8809 79.1504 18.1543 78.9453 18.4473C78.6523 18.8672 78.252 19.2383 77.7441 19.5605C77.2266 19.8828 76.709 20.0586 76.1719 20.0879ZM76.4355 19.3848C76.8066 19.3066 77.1777 19.1406 77.5293 18.8867C77.8906 18.6426 78.1738 18.3691 78.3789 18.0762C77.4414 18.6133 76.7871 19.0527 76.4355 19.3848Z" fill="#E0E0E0"/>
<path d="M70.6738 19.375H70.5762C70.1367 19.375 69.8047 19.1992 69.5898 18.8477C69.4531 18.6035 69.3945 18.3203 69.3945 17.998C69.3945 17.2754 69.6582 16.4844 70.1953 15.625C70.8691 14.5801 71.582 14.0527 72.3535 14.0527H72.3633C72.4609 13.9844 72.5879 13.9551 72.7344 13.9551C72.8809 13.9551 73.0176 14.0137 73.1445 14.1211C73.3398 14.3164 73.4375 14.6289 73.4375 15.0586C73.4375 15.3809 73.3984 15.7227 73.3203 16.084C73.5059 16.1426 73.7402 16.1621 74.0039 16.1621C74.6973 16.1621 75.6348 15.9863 76.8359 15.625C76.875 15.6152 76.9043 15.6055 76.9434 15.6055C76.9922 15.6055 77.0508 15.625 77.1094 15.6543C77.2168 15.7129 77.2754 15.8008 77.2754 15.9473C77.2754 16.1035 77.1973 16.2109 77.041 16.2695C75.8105 16.6406 74.8047 16.8262 74.0137 16.8262C73.6914 16.8262 73.3984 16.7969 73.1445 16.7285C72.9883 17.2363 72.7148 17.793 72.3047 18.3789C71.9141 18.9551 71.3672 19.2871 70.6738 19.375ZM72.6855 15.8398C72.7441 15.498 72.7734 15.2246 72.7734 15.0195C72.7734 14.834 72.7441 14.707 72.7051 14.6387H72.6953C72.4316 14.7656 72.3047 14.9609 72.3047 15.2246C72.3047 15.459 72.4316 15.6641 72.6855 15.8398ZM70.6348 18.7012C71.3184 18.623 71.8945 18.0078 72.373 16.8555C72.4219 16.7383 72.4707 16.6211 72.5098 16.5137C71.9238 16.2012 71.6309 15.7715 71.6309 15.2246C71.6309 15.1465 71.6309 15.0586 71.6504 14.9805C71.3477 15.2051 71.0547 15.5371 70.7715 15.9863C70.3027 16.7383 70.0684 17.4121 70.0684 18.0273C70.0684 18.2227 70.0977 18.3789 70.166 18.5059C70.2344 18.6426 70.3711 18.7012 70.5762 18.7012H70.6348Z" fill="#E0E0E0"/>
<path d="M52.8613 26.6895C52.373 26.6895 51.9922 26.6211 51.7285 26.4844C51.1523 26.2012 50.8594 25.7324 50.8594 25.0977C50.8594 24.6387 51.0156 24.1211 51.3281 23.5254C52.1777 21.9238 53.8672 20.332 56.416 18.75C58.9648 17.168 62.1191 16.123 65.8887 15.625C67.7734 12.9492 69.2188 10.3418 70.2246 7.8125C70.9277 5.97656 71.2793 4.49219 71.2793 3.35938C71.2793 2.16797 70.8887 1.35742 70.1074 0.947266C69.668 0.751953 69.1699 0.654297 68.6133 0.654297C67.8223 0.654297 66.7285 0.917969 65.3516 1.45508C63.9648 1.98242 62.4219 2.90039 60.7129 4.20898C59.0039 5.52734 57.666 6.9043 56.709 8.35938C56.1914 9.13086 55.8594 9.96094 55.7227 10.8496C55.7031 10.9863 55.6934 11.1133 55.6934 11.2402C55.6934 11.9824 56.0449 12.6562 56.748 13.2715C56.8359 13.3398 56.875 13.4375 56.875 13.5449C56.875 13.6133 56.8555 13.6816 56.8066 13.75C56.7383 13.8281 56.6406 13.8672 56.5332 13.8672C56.4648 13.8672 56.3965 13.8477 56.3281 13.7988C55.459 13.0859 55.0293 12.2168 55.0293 11.2012C55.0293 10.2637 55.4004 9.18945 56.1426 7.99805C57.168 6.44531 58.5742 4.98047 60.3809 3.61328C62.1875 2.25586 64.0137 1.24023 65.8691 0.566406C66.9141 0.185547 67.8418 0 68.6719 0C69.3164 0 69.8926 0.117188 70.4102 0.341797C71.123 0.625 71.6113 1.34766 71.8652 2.50977C71.9238 2.76367 71.9531 3.04688 71.9531 3.35938C71.9531 4.50195 71.582 6.06445 70.8496 8.05664C69.8926 10.498 68.5352 12.998 66.7871 15.5469C67.3926 15.498 68.0176 15.4785 68.6426 15.4785C69.6973 15.4785 70.2637 15.5273 70.3516 15.625C70.4102 15.6934 70.4395 15.7812 70.4395 15.8789C70.4297 15.9668 70.4004 16.0449 70.332 16.1035C70.2637 16.1621 70.1953 16.1914 70.1074 16.1914H70.0781C69.5801 16.1621 69.0918 16.1523 68.6035 16.1523C67.8125 16.1523 67.041 16.1914 66.2891 16.2598C64.4434 18.8477 62.4512 21.084 60.3125 22.9785C58.1738 24.873 56.123 26.0547 54.1699 26.5332C53.6621 26.6406 53.2227 26.6895 52.8613 26.6895ZM52.8418 26.0254C53.1738 26.0254 53.5742 25.9766 54.0332 25.8789C55.8105 25.4395 57.6953 24.3457 59.6973 22.5977C61.6992 20.8496 63.584 18.7695 65.3516 16.3672C61.8652 16.9141 58.9453 17.9297 56.6113 19.4043C54.2773 20.8789 52.7148 22.3633 51.9238 23.8379C51.6602 24.3359 51.5332 24.7461 51.5332 25.0879C51.5332 25.7129 51.9727 26.0254 52.8418 26.0254Z" fill="#E0E0E0"/>
<path d="M39.7949 19.375H39.6973C39.2578 19.375 38.9258 19.1992 38.7109 18.8477C38.5742 18.6035 38.5156 18.3203 38.5156 17.998C38.5156 17.2754 38.7793 16.4844 39.3164 15.625C39.9902 14.5801 40.7031 14.0527 41.4746 14.0527H41.4844C41.582 13.9844 41.709 13.9551 41.8555 13.9551C42.002 13.9551 42.1387 14.0137 42.2656 14.1211C42.4609 14.3164 42.5586 14.6289 42.5586 15.0586C42.5586 15.3809 42.5195 15.7227 42.4414 16.084C42.627 16.1426 42.8613 16.1621 43.125 16.1621C43.8184 16.1621 44.7559 15.9863 45.957 15.625C45.9961 15.6152 46.0254 15.6055 46.0645 15.6055C46.1133 15.6055 46.1719 15.625 46.2305 15.6543C46.3379 15.7129 46.3965 15.8008 46.3965 15.9473C46.3965 16.1035 46.3184 16.2109 46.1621 16.2695C44.9316 16.6406 43.9258 16.8262 43.1348 16.8262C42.8125 16.8262 42.5195 16.7969 42.2656 16.7285C42.1094 17.2363 41.8359 17.793 41.4258 18.3789C41.0352 18.9551 40.4883 19.2871 39.7949 19.375ZM41.8066 15.8398C41.8652 15.498 41.8945 15.2246 41.8945 15.0195C41.8945 14.834 41.8652 14.707 41.8262 14.6387H41.8164C41.5527 14.7656 41.4258 14.9609 41.4258 15.2246C41.4258 15.459 41.5527 15.6641 41.8066 15.8398ZM39.7559 18.7012C40.4395 18.623 41.0156 18.0078 41.4941 16.8555C41.543 16.7383 41.5918 16.6211 41.6309 16.5137C41.0449 16.2012 40.752 15.7715 40.752 15.2246C40.752 15.1465 40.752 15.0586 40.7715 14.9805C40.4688 15.2051 40.1758 15.5371 39.8926 15.9863C39.4238 16.7383 39.1895 17.4121 39.1895 18.0273C39.1895 18.2227 39.2188 18.3789 39.2871 18.5059C39.3555 18.6426 39.4922 18.7012 39.6973 18.7012H39.7559Z" fill="#E0E0E0"/>
<path d="M34.4238 19.3262C33.9355 19.3262 33.6035 19.1016 33.4473 18.6621C33.4082 18.5547 33.3887 18.4277 33.3887 18.2812C33.3887 18.0762 33.4277 17.8223 33.5059 17.5293C33.8086 16.4648 34.3457 15.3223 35.1172 14.1016C35.1855 13.9941 35.2832 13.9355 35.3906 13.9355C35.459 13.9355 35.5176 13.9551 35.5762 13.9941C35.6836 14.0625 35.7324 14.1602 35.7324 14.2773C35.7324 14.3359 35.7129 14.3945 35.6836 14.4531C34.5996 16.2891 34.0625 17.5586 34.0625 18.252C34.0625 18.5352 34.1797 18.6719 34.4238 18.6719C35.332 18.6719 36.8945 17.666 39.1113 15.6738C39.1797 15.6152 39.248 15.5859 39.3262 15.5859H39.4141C39.4629 15.5859 39.5117 15.625 39.5801 15.6934C39.6484 15.7617 39.6777 15.8398 39.6777 15.9277C39.668 16.0156 39.6289 16.1035 39.5605 16.1719C37.2266 18.2715 35.5176 19.3262 34.4238 19.3262ZM35.9668 13.2812C35.9082 13.2812 35.8496 13.2715 35.8008 13.2422C35.6836 13.1738 35.625 13.0762 35.625 12.9395C35.625 12.8809 35.6445 12.832 35.6641 12.7832L36.0156 12.1387C36.084 12.0215 36.1816 11.9629 36.3086 11.9629C36.3672 11.9629 36.416 11.9727 36.4746 12.002C36.5918 12.0605 36.6504 12.1582 36.6504 12.2949C36.6504 12.3535 36.6309 12.4023 36.6113 12.4512L36.2598 13.1055C36.1816 13.2227 36.084 13.2812 35.9668 13.2812Z" fill="#E0E0E0"/>
<path d="M23.7988 19.375C23.7598 19.375 23.7207 19.3652 23.6719 19.3457C23.5254 19.2969 23.4473 19.1992 23.418 19.0527C23.418 19.0039 23.4277 18.9648 23.4375 18.916C23.8086 17.793 24.375 16.4746 25.1367 14.9707L25.5859 14.0918C25.6543 13.9746 25.752 13.916 25.8789 13.916C25.9375 13.916 25.9961 13.9258 26.0449 13.9551C26.1621 14.0137 26.2207 14.1113 26.2207 14.2383C26.2207 14.2969 26.2109 14.3457 26.1914 14.3848C26.1719 14.4336 26.0352 14.6973 25.7812 15.1953C25.5273 15.6934 25.2441 16.2988 24.9219 17.002C25.752 15.8887 26.582 14.9121 27.3926 14.0625C27.5098 13.9551 27.6367 13.8965 27.7734 13.8965C27.832 13.8965 27.8906 13.916 27.9297 13.9453C28.0762 14.0137 28.1543 14.1504 28.1543 14.3652C28.1543 14.668 28.0176 15.3516 27.7539 16.4062C27.6855 16.6895 27.6172 16.9824 27.5488 17.2852C27.8027 16.9141 28.0469 16.543 28.2812 16.1816C28.7402 15.4785 29.1016 14.9609 29.3555 14.6289C29.6484 14.248 29.9023 14.0527 30.127 14.0527C30.2246 14.0527 30.3223 14.0918 30.4102 14.1699C30.498 14.248 30.5371 14.375 30.5371 14.5508C30.5371 14.707 30.4883 15.0293 30.3906 15.5078C30.2441 16.1816 30.166 16.7383 30.166 17.1582C30.166 17.4902 30.2246 17.7051 30.3516 17.793C30.3809 17.8223 30.498 17.832 30.6836 17.832C30.7617 17.8223 30.9375 17.7637 31.2207 17.6465C31.8652 17.373 32.8125 16.709 34.0625 15.6543C34.1309 15.6055 34.2285 15.5762 34.3652 15.5762C34.4141 15.5859 34.4629 15.625 34.5215 15.6934C34.5801 15.7617 34.6094 15.8398 34.6094 15.9082C34.6094 16.0156 34.5703 16.1035 34.4922 16.1719C32.6562 17.7344 31.3281 18.5156 30.5176 18.5156C30.3125 18.5156 30.1465 18.4668 30.0098 18.3789C29.6582 18.1348 29.4824 17.7441 29.4824 17.2266C29.4824 16.6895 29.5605 16.0645 29.7266 15.3711L29.7559 15.2148C29.4434 15.6543 29.1406 16.0938 28.8477 16.5527C28.3301 17.3535 27.9492 17.9004 27.7051 18.1836C27.4902 18.4375 27.3047 18.5645 27.1484 18.5645C26.875 18.5645 26.7383 18.3984 26.7383 18.0762C26.7383 17.832 26.8555 17.2266 27.0996 16.25C27.1973 15.8691 27.2852 15.4688 27.373 15.0586C26.6602 15.8691 25.8203 16.9141 24.8633 18.1934C24.6191 18.5156 24.4238 18.7695 24.2871 18.9355C24.0625 19.2285 23.8965 19.375 23.7988 19.375Z" fill="#E0E0E0"/>
<path d="M18.5059 19.375H18.4082C17.9688 19.375 17.6367 19.1992 17.4219 18.8477C17.2852 18.6035 17.2266 18.3203 17.2266 17.998C17.2266 17.2754 17.4902 16.4844 18.0273 15.625C18.7012 14.5801 19.4141 14.0527 20.1855 14.0527H20.1953C20.293 13.9844 20.4199 13.9551 20.5664 13.9551C20.7129 13.9551 20.8496 14.0137 20.9766 14.1211C21.1719 14.3164 21.2695 14.6289 21.2695 15.0586C21.2695 15.3809 21.2305 15.7227 21.1523 16.084C21.3379 16.1426 21.5723 16.1621 21.8359 16.1621C22.5293 16.1621 23.4668 15.9863 24.668 15.625C24.707 15.6152 24.7363 15.6055 24.7754 15.6055C24.8242 15.6055 24.8828 15.625 24.9414 15.6543C25.0488 15.7129 25.1074 15.8008 25.1074 15.9473C25.1074 16.1035 25.0293 16.2109 24.873 16.2695C23.6426 16.6406 22.6367 16.8262 21.8457 16.8262C21.5234 16.8262 21.2305 16.7969 20.9766 16.7285C20.8203 17.2363 20.5469 17.793 20.1367 18.3789C19.7461 18.9551 19.1992 19.2871 18.5059 19.375ZM20.5176 15.8398C20.5762 15.498 20.6055 15.2246 20.6055 15.0195C20.6055 14.834 20.5762 14.707 20.5371 14.6387H20.5273C20.2637 14.7656 20.1367 14.9609 20.1367 15.2246C20.1367 15.459 20.2637 15.6641 20.5176 15.8398ZM18.4668 18.7012C19.1504 18.623 19.7266 18.0078 20.2051 16.8555C20.2539 16.7383 20.3027 16.6211 20.3418 16.5137C19.7559 16.2012 19.4629 15.7715 19.4629 15.2246C19.4629 15.1465 19.4629 15.0586 19.4824 14.9805C19.1797 15.2051 18.8867 15.5371 18.6035 15.9863C18.1348 16.7383 17.9004 17.4121 17.9004 18.0273C17.9004 18.2227 17.9297 18.3789 17.998 18.5059C18.0664 18.6426 18.2031 18.7012 18.4082 18.7012H18.4668Z" fill="#E0E0E0"/>
<path d="M3.14453 26.7969C3.10547 26.7969 3.06641 26.7871 3.02734 26.7773C2.88086 26.7188 2.8125 26.6113 2.8125 26.4648C2.8125 26.4258 4.10156 23.0664 6.68945 16.3965C6.20117 16.4941 5.75195 16.543 5.33203 16.543C5.24414 16.543 5.04883 16.5332 4.75586 16.5137C4.46289 16.5039 4.17969 16.3672 3.90625 16.123C3.7793 16.0156 3.69141 15.8496 3.63281 15.625C3.61328 15.5469 3.60352 15.4688 3.60352 15.3809C3.60352 15.2051 3.64258 15.0098 3.7207 14.7754C3.94531 14.1699 4.26758 13.8574 4.7168 13.8574C5.3418 13.8574 6.11328 14.4141 7.03125 15.5176L12.1094 2.42188C8.58398 3.4375 5.5957 4.98047 3.14453 7.05078C2.36328 7.71484 1.70898 8.52539 1.17188 9.49219C0.839844 10.0781 0.673828 10.7031 0.673828 11.3672C0.673828 11.7676 0.742188 12.1973 0.869141 12.627C0.878906 12.666 0.888672 12.6953 0.888672 12.7344C0.888672 12.7832 0.869141 12.8418 0.839844 12.9102C0.78125 13.0176 0.693359 13.0762 0.546875 13.0762C0.400391 13.0762 0.292969 12.998 0.234375 12.8516C0.078125 12.373 0 11.8945 0 11.416C0 9.80469 0.898438 8.17383 2.69531 6.54297C5.35156 4.32617 8.58398 2.70508 12.3926 1.67969L12.9004 0.390625C12.9492 0.244141 13.0566 0.175781 13.2129 0.175781C13.252 0.175781 13.291 0.175781 13.3301 0.195312C13.4766 0.253906 13.5449 0.361328 13.5449 0.507812C13.5449 0.556641 13.4375 0.878906 13.2031 1.47461C14.8047 1.09375 16.2402 0.908203 17.4902 0.908203C18.7402 0.908203 19.8242 1.09375 20.7324 1.46484C21.8848 2.02148 22.4609 2.90039 22.4609 4.12109V4.23828C22.2266 6.46484 20.8887 8.56445 18.457 10.5469C16.0156 12.5293 13.291 14.1211 10.293 15.3027C9.69727 15.5664 8.79883 15.8594 7.61719 16.1914L8.51562 17.2852C9.61914 18.6816 10.8496 20.0684 12.207 21.4453C13.5645 22.8223 15.0195 23.8379 16.5918 24.4824C17.3047 24.7754 18.0273 24.9219 18.7793 24.9219C19.6777 24.9219 20.6055 24.707 21.5625 24.2773C21.6211 24.2578 21.6699 24.2383 21.7188 24.2383C21.8555 24.2383 21.9531 24.3066 22.0215 24.4336C22.041 24.4824 22.0508 24.5215 22.0508 24.5703C22.0508 24.707 21.9922 24.8145 21.8652 24.8828C20.8789 25.3516 19.9121 25.5859 18.9746 25.5859H18.8965C16.6699 25.459 14.6289 24.5605 12.7832 22.8711C10.9375 21.1816 9.33594 19.4629 7.99805 17.7148L7.24609 16.8066L3.45703 26.582C3.38867 26.7285 3.28125 26.7969 3.14453 26.7969ZM5.3125 15.8691C5.60547 15.8691 5.94727 15.8398 6.35742 15.7812C5.64453 14.9414 5.10742 14.5215 4.76562 14.5215C4.58984 14.5215 4.45312 14.6777 4.35547 15C4.30664 15.1465 4.27734 15.2637 4.27734 15.3516C4.27734 15.6934 4.61914 15.8691 5.3125 15.8691ZM7.77344 15.459C8.44727 15.2734 9.19922 15.0098 10.0391 14.6777C13.0176 13.4961 15.6641 11.9531 17.9883 10.0488C20.3125 8.14453 21.582 6.20117 21.7871 4.20898V4.07227C21.7871 3.1543 21.3477 2.49023 20.4492 2.07031C19.5898 1.72852 18.584 1.55273 17.4219 1.55273C16.1133 1.55273 14.6094 1.76758 12.9199 2.20703L7.77344 15.459Z" fill="#E0E0E0"/>
</svg>
