<svg xmlns="http://www.w3.org/2000/svg" width="106" height="30" fill="none" viewBox="0 0 106 30"><path fill="#e0e0e0" d="M95.742 19.336a.4.4 0 0 1-.146-.03c-.127-.068-.196-.165-.196-.292 0-.04.01-.069.02-.108.557-1.845 1.318-3.925 2.275-6.22a81 81 0 0 1 2.793-6.084q1.553-3.018 2.198-3.018a.43.43 0 0 1 .234.068.32.32 0 0 1 .156.284.4.4 0 0 1-.049.175.34.34 0 0 1-.293.157h-.019q-.748.673-2.578 4.54a88 88 0 0 0-3.418 8.272 14.4 14.4 0 0 1 1.953-2.06c.732-.625 1.426-.938 2.099-.948.362.03.547.274.547.743 0 .351-.107.81-.322 1.367-.293.869-.43 1.494-.43 1.894 0 .117.01.205.039.274l.069.117c.029.02.078.03.166.03q.953.002 4.131-2.852a.32.32 0 0 1 .215-.088h.087c.049.01.108.039.166.107a.34.34 0 0 1 .088.215v.088c0 .049-.039.107-.107.176-2.227 2.021-3.77 3.037-4.639 3.037a.78.78 0 0 1-.439-.127.85.85 0 0 1-.4-.557 2 2 0 0 1-.05-.469c0-.459.147-1.142.46-2.05.195-.665.302-1.075.312-1.24-.498.048-1.055.341-1.67.888a15 15 0 0 0-1.728 1.855c-.547.694-.957 1.26-1.24 1.7a.34.34 0 0 1-.284.156"/><path fill="#e0e0e0" d="M83.965 29.902a.32.32 0 0 1-.264-.127.3.3 0 0 1-.068-.205v-.049c.176-1.123.683-2.832 1.514-5.117a90 90 0 0 1 2.675-6.543c1.211-2.636 2.08-3.955 2.598-3.955h.068c.196.04.284.147.284.332v.059c-.04.176-.147.273-.313.283-.186.127-.478.547-.86 1.26 1.28-1.319 2.344-1.983 3.213-1.983.391 0 .704.147.938.45a.88.88 0 0 1 .166.537c0 .263-.088.586-.273.947-.47.908-1.25 1.797-2.334 2.646 1.22-.37 2.949-1.289 5.175-2.753a.32.32 0 0 1 .186-.059c.107 0 .205.049.283.146.04.069.049.127.049.196a.31.31 0 0 1-.146.273q-4.924 3.282-7.608 3.282-.908 0-1.289-.264a94 94 0 0 0-2.334 5.81c-.713 1.973-1.162 3.487-1.328 4.541-.03.196-.137.293-.332.293m4.883-11.113c.732 0 1.523-.371 2.373-1.123.85-.742 1.455-1.465 1.826-2.168.127-.283.195-.498.195-.664 0-.059-.01-.107-.039-.137a.4.4 0 0 0-.117-.107.54.54 0 0 0-.273-.059c-.479 0-1.133.362-1.983 1.074-.85.723-1.7 1.739-2.558 3.038.185.097.37.146.576.146"/><path fill="#e0e0e0" d="M83.75 19.414h-.225c-.713 0-1.181-.254-1.386-.752a1.8 1.8 0 0 1-.127-.693c0-.371.127-.85.37-1.446.245-.585.655-1.152 1.212-1.708.596-.577 1.181-.86 1.738-.86.264 0 .459.068.615.205a.61.61 0 0 1 .196.469c0 .186-.098.4-.303.644-.596.616-1.484 1.026-2.686 1.23-.312.577-.468 1.056-.468 1.466 0 .146.02.293.068.42.107.234.361.361.762.361l.185-.01a5.3 5.3 0 0 0 1.826-.556 11.4 11.4 0 0 0 2.803-2.032c.293-.283.45-.44.46-.468a.36.36 0 0 1 .263-.108c.078 0 .156.03.224.098a.33.33 0 0 1 .098.254c0 .078-.03.146-.078.215-.059.068-.352.351-.889.85-.537.497-1.21.995-2.031 1.503-.83.508-1.7.81-2.627.918m-.049-3.72c.81-.255 1.358-.548 1.631-.88a.7.7 0 0 0 .127-.175c-.03-.02-.068-.02-.117-.02-.127 0-.303.049-.528.137-.36.156-.732.459-1.113.937"/><path fill="#e0e0e0" d="M76.172 20.088h-.02c-.283 0-.459-.088-.546-.254a.5.5 0 0 1-.05-.186c0-.273.245-.615.723-1.015.489-.4 1.143-.82 1.973-1.26l-.342-.176a4.3 4.3 0 0 1-.664-.361c-.312-.195-.459-.44-.459-.732 0-.41.371-.899 1.123-1.475.918-.713 1.612-1.064 2.08-1.064.215 0 .381.058.508.195a.56.56 0 0 1 .137.37c0 .216-.108.47-.313.772a.33.33 0 0 1-.283.147.32.32 0 0 1-.186-.059.33.33 0 0 1-.146-.283c0-.068.02-.127.059-.186.087-.127.136-.224.166-.283-.098.01-.245.059-.43.147-.4.205-.791.469-1.182.771-.39.313-.654.576-.8.801a.2.2 0 0 0-.05.137c0 .117.235.273.723.498.284.117.528.254.752.42a28 28 0 0 1 3.926-1.602l.098-.01c.058 0 .117.01.175.05a.31.31 0 0 1 .166.292c0 .166-.087.264-.244.313q-2.153.703-3.808 1.552v.02c0 .254-.108.527-.313.82q-.44.63-1.2 1.114c-.518.322-1.036.498-1.573.527m.264-.703a2.9 2.9 0 0 0 1.093-.498 3.2 3.2 0 0 0 .85-.81c-.938.536-1.592.976-1.944 1.308"/><path fill="#e0e0e0" d="M70.674 19.375h-.098q-.662 0-.986-.527c-.137-.244-.196-.528-.196-.85 0-.723.264-1.514.801-2.373.674-1.045 1.387-1.572 2.159-1.572h.01a.64.64 0 0 1 .37-.098.63.63 0 0 1 .41.166q.293.293.293.938 0 .483-.117 1.025c.186.059.42.078.684.078.693 0 1.63-.176 2.832-.537.039-.01.068-.02.107-.02.05 0 .108.02.166.05.108.058.166.146.166.292q0 .235-.234.323c-1.23.37-2.236.556-3.027.556-.323 0-.616-.03-.87-.098-.156.508-.43 1.065-.84 1.65-.39.577-.937.91-1.63.997m2.011-3.535q.089-.513.088-.82c0-.186-.029-.313-.068-.381h-.01c-.263.127-.39.322-.39.586q0 .352.38.615m-2.05 2.861q1.023-.117 1.738-1.846c.049-.117.098-.234.137-.341q-.88-.469-.88-1.29c0-.078 0-.165.02-.244-.302.225-.595.557-.879 1.006-.468.752-.703 1.426-.703 2.041 0 .196.03.352.098.479.068.137.205.195.41.195z"/><path fill="#e0e0e0" d="M52.861 26.69c-.488 0-.869-.069-1.133-.206-.576-.283-.869-.752-.869-1.386 0-.46.157-.977.47-1.573.849-1.601 2.538-3.193 5.087-4.775s5.703-2.627 9.473-3.125c1.884-2.676 3.33-5.283 4.336-7.812q1.054-2.754 1.054-4.454c0-1.191-.39-2.002-1.172-2.412a3.6 3.6 0 0 0-1.494-.293c-.79 0-1.885.264-3.261.801-1.387.527-2.93 1.445-4.64 2.754-1.708 1.318-3.046 2.695-4.003 4.15a6.1 6.1 0 0 0-.986 2.49 3 3 0 0 0-.03.391c0 .742.352 1.416 1.055 2.031a.33.33 0 0 1 .127.274q.002.103-.068.205a.36.36 0 0 1-.274.117.34.34 0 0 1-.205-.068c-.869-.713-1.299-1.582-1.299-2.598 0-.937.371-2.012 1.114-3.203 1.025-1.553 2.431-3.018 4.238-4.385q2.707-2.036 5.488-3.047C66.914.186 67.842 0 68.672 0c.644 0 1.22.117 1.738.342.713.283 1.201 1.006 1.455 2.168q.088.38.088.85c0 1.142-.371 2.704-1.103 4.697-.957 2.441-2.315 4.941-4.063 7.49.606-.049 1.23-.069 1.856-.069 1.054 0 1.62.05 1.709.147a.38.38 0 0 1 .087.254.33.33 0 0 1-.107.225.33.33 0 0 1-.225.087h-.029a25.52 25.52 0 0 0-3.789.068c-1.846 2.589-3.838 4.825-5.976 6.72q-3.212 2.839-6.143 3.554a6.5 6.5 0 0 1-1.309.156m-.02-.665c.333 0 .733-.048 1.192-.146 1.777-.44 3.662-1.533 5.664-3.281s3.887-3.828 5.655-6.23c-3.487.546-6.407 1.562-8.74 3.036-2.335 1.475-3.897 2.96-4.688 4.434-.264.498-.39.908-.39 1.25 0 .625.439.937 1.308.937M39.795 19.375h-.098q-.662 0-.986-.527c-.137-.244-.195-.528-.195-.85 0-.723.263-1.514.8-2.373.674-1.045 1.387-1.572 2.159-1.572h.01a.64.64 0 0 1 .37-.098.63.63 0 0 1 .41.166q.294.293.294.938 0 .483-.118 1.025c.186.059.42.078.684.078.693 0 1.63-.176 2.832-.537.04-.01.068-.02.108-.02.048 0 .107.02.166.05.107.058.166.146.166.292q0 .235-.235.323c-1.23.37-2.236.556-3.027.556-.322 0-.615-.03-.87-.098-.156.508-.43 1.065-.84 1.65-.39.577-.937.91-1.63.997m2.012-3.535q.087-.513.087-.82c0-.186-.029-.313-.068-.381h-.01c-.263.127-.39.322-.39.586q0 .352.38.615M39.756 18.7c.684-.078 1.26-.693 1.738-1.846.049-.117.098-.234.137-.341q-.879-.469-.879-1.29c0-.078 0-.165.02-.244-.303.225-.596.557-.88 1.006-.468.752-.703 1.426-.703 2.041 0 .196.03.352.098.479.069.137.205.195.41.195z"/><path fill="#e0e0e0" d="M34.424 19.326c-.489 0-.82-.224-.977-.664a1.1 1.1 0 0 1-.058-.38c0-.206.039-.46.117-.753q.455-1.597 1.611-3.427c.069-.108.166-.167.274-.167q.1 0 .185.06a.32.32 0 0 1 .156.282c0 .059-.02.118-.048.176-1.084 1.836-1.621 3.106-1.621 3.799 0 .283.117.42.36.42.909 0 2.471-1.006 4.688-2.998a.32.32 0 0 1 .215-.088h.088c.049 0 .098.039.166.107a.32.32 0 0 1 .098.235.4.4 0 0 1-.117.244c-2.334 2.1-4.043 3.154-5.137 3.154m1.543-6.045a.3.3 0 0 1-.166-.039.33.33 0 0 1-.176-.303c0-.058.02-.107.04-.156l.35-.644a.32.32 0 0 1 .294-.176c.058 0 .107.01.166.039a.3.3 0 0 1 .175.293c0 .059-.02.107-.039.156l-.351.654q-.117.176-.293.176"/><path fill="#e0e0e0" d="M23.799 19.375a.3.3 0 0 1-.127-.03.36.36 0 0 1-.254-.292c0-.05.01-.088.02-.137.37-1.123.937-2.441 1.699-3.945l.449-.88a.32.32 0 0 1 .293-.175.3.3 0 0 1 .166.04.3.3 0 0 1 .176.282q0 .088-.03.147c-.02.049-.156.312-.41.81a50 50 0 0 0-.86 1.807c.831-1.113 1.661-2.09 2.472-2.94a.56.56 0 0 1 .38-.165.27.27 0 0 1 .157.048c.146.069.224.205.224.42 0 .303-.136.987-.4 2.041q-.103.425-.205.88c.254-.372.498-.743.732-1.104q.691-1.055 1.075-1.553c.292-.381.546-.576.771-.576q.149 0 .283.117c.088.078.127.205.127.38 0 .157-.049.48-.146.958-.147.674-.225 1.23-.225 1.65 0 .332.059.547.186.635.029.03.146.039.332.039.078-.01.253-.068.537-.186q.966-.41 2.842-1.992a.5.5 0 0 1 .302-.078c.05.01.098.049.157.117a.34.34 0 0 1 .087.215q0 .162-.117.264c-1.836 1.562-3.164 2.344-3.974 2.344a.9.9 0 0 1-.508-.137c-.352-.244-.528-.635-.528-1.152 0-.538.079-1.163.245-1.856l.029-.156c-.313.44-.615.879-.908 1.338-.518.8-.899 1.347-1.143 1.63q-.322.382-.557.381c-.273 0-.41-.166-.41-.488 0-.244.117-.85.362-1.826.097-.38.185-.781.273-1.191-.713.81-1.553 1.855-2.51 3.134-.244.323-.44.576-.576.742-.224.294-.39.44-.488.44"/><path fill="#e0e0e0" d="M18.506 19.375h-.098q-.662 0-.986-.527c-.137-.244-.195-.528-.195-.85 0-.723.263-1.514.8-2.373.674-1.045 1.387-1.572 2.159-1.572h.01a.64.64 0 0 1 .37-.098.63.63 0 0 1 .41.166q.294.293.294.938 0 .483-.118 1.025c.186.059.42.078.684.078.693 0 1.63-.176 2.832-.537.039-.01.068-.02.107-.02.05 0 .108.02.166.05.108.058.166.146.166.292q0 .235-.234.323c-1.23.37-2.236.556-3.027.556-.323 0-.616-.03-.87-.098-.156.508-.43 1.065-.84 1.65-.39.577-.937.91-1.63.997m2.012-3.535q.087-.513.087-.82c0-.186-.029-.313-.068-.381h-.01c-.263.127-.39.322-.39.586q0 .352.38.615M18.467 18.7q1.023-.117 1.738-1.846c.049-.117.098-.234.137-.341q-.88-.469-.88-1.29c0-.078 0-.165.02-.244-.302.225-.595.557-.878 1.006-.47.752-.704 1.426-.704 2.041 0 .196.03.352.098.479.068.137.205.195.41.195z"/><path fill="#e0e0e0" d="M3.145 26.797c-.04 0-.079-.01-.118-.02a.31.31 0 0 1-.215-.312c0-.04 1.29-3.399 3.877-10.068a7 7 0 0 1-1.357.146c-.088 0-.283-.01-.576-.03-.293-.01-.576-.146-.85-.39-.127-.107-.215-.273-.273-.498a1 1 0 0 1-.03-.244c0-.176.04-.371.118-.606.224-.605.547-.918.996-.918.625 0 1.396.557 2.314 1.66L12.11 2.423Q6.821 3.945 3.145 7.05a8.7 8.7 0 0 0-1.973 2.441 3.74 3.74 0 0 0-.498 1.875c0 .4.068.83.195 1.26.01.039.02.068.02.107 0 .05-.02.108-.05.176-.058.108-.146.166-.292.166-.147 0-.254-.078-.313-.224A4.6 4.6 0 0 1 0 11.416c0-1.611.898-3.242 2.695-4.873Q6.68 3.218 12.393 1.68L12.9.39c.05-.146.157-.214.313-.214.039 0 .078 0 .117.02a.31.31 0 0 1 .215.312c0 .049-.107.37-.342.967 1.602-.381 3.037-.567 4.287-.567s2.334.186 3.242.557c1.153.556 1.729 1.435 1.729 2.656v.117c-.234 2.227-1.572 4.326-4.004 6.309a30.8 30.8 0 0 1-8.164 4.756c-.596.263-1.494.556-2.676.888l.899 1.094a51 51 0 0 0 3.691 4.16c1.358 1.377 2.813 2.393 4.385 3.037.713.293 1.435.44 2.187.44q1.348 0 2.784-.645c.058-.02.107-.039.156-.039.136 0 .234.069.302.196.02.048.03.087.03.136a.33.33 0 0 1-.186.313c-.986.469-1.953.703-2.89.703h-.079c-2.226-.127-4.267-1.025-6.113-2.715-1.845-1.69-3.447-3.408-4.785-5.156l-.752-.908-3.789 9.775c-.068.146-.176.215-.312.215m2.168-10.928c.292 0 .634-.03 1.044-.088-.712-.84-1.25-1.26-1.591-1.26q-.264-.002-.41.479a1.2 1.2 0 0 0-.079.352c0 .341.342.517 1.035.517m2.46-.41c.674-.186 1.426-.45 2.266-.781 2.979-1.182 5.625-2.725 7.95-4.63 2.323-1.903 3.593-3.847 3.798-5.839v-.137c0-.918-.44-1.582-1.338-2.002-.86-.341-1.865-.517-3.027-.517-1.309 0-2.813.215-4.502.654z"/></svg>