<svg width="64" height="64" viewBox="0 0 64 64" fill="none" xmlns="http://www.w3.org/2000/svg">
<g clip-path="url(#clip0_65_43)">
<path d="M32 64C46.0222 64 53.8174 64 58.9087 58.9087C64 53.8174 64 46.0222 64 32C64 17.9778 64 10.1826 58.9087 5.09131C53.8174 -9.53674e-07 46.0222 0 32 0C17.9778 0 10.1826 -9.53674e-07 5.09131 5.09131C-9.53674e-07 10.1826 0 17.9778 0 32C0 46.0222 -9.53674e-07 53.8174 5.09131 58.9087C10.1826 64 17.9778 64 32 64Z" fill="url(#paint0_linear_65_43)"/>
<path d="M32.3053 40.1831C27.7247 41.1761 23.08 41.3203 18.4834 40.5675C21.3183 45.052 26.3153 48.031 32.017 48.031C36.9979 48.031 41.4504 45.7567 44.3974 42.1851C43.6927 40.1031 42.7958 38.1171 41.7227 36.2272C41.1141 35.1381 39.5605 35.1861 38.9359 36.2592C37.5745 38.5495 35.1241 40.087 32.3053 40.1831Z" fill="#DDDDDD"/>
<path d="M38.8713 27.6409C42.0745 31.0683 44.573 34.9762 46.2867 39.3005C48.6891 34.5598 48.6731 28.746 45.7422 23.8611C43.1796 19.5848 38.9514 16.9261 34.3708 16.2374C32.9454 17.9191 31.6961 19.7129 30.6231 21.5868C29.9984 22.6759 30.8473 23.9732 32.0965 23.9732C34.7712 23.9572 37.3498 25.2705 38.8713 27.6409Z" fill="#D4D4D4"/>
<path d="M37.5093 32.0024C37.5093 31.0254 37.2691 30.1125 36.7726 29.2476C35.7956 27.5659 33.9858 26.5089 32.0318 26.5089C30.0779 26.5089 28.252 27.5659 27.2911 29.2476C26.7946 30.1125 26.5383 31.0254 26.5383 32.0024C26.5383 35.0294 29.0048 37.4799 32.0318 37.4799C35.0428 37.4959 37.5093 35.0294 37.5093 32.0024Z" fill="#999999"/>
<path d="M17.057 37.7498C19.2512 38.2143 21.4775 38.4705 23.6877 38.5025C24.9529 38.5186 25.6737 37.1412 25.049 36.0361C24.4084 34.899 24.04 33.5856 24.04 32.1922C24.04 30.8469 24.3924 29.5176 25.049 28.3324C26.5545 23.7197 28.7968 19.6196 31.7598 16C23.031 16.1442 16 23.2553 16 32.0161C16 34.0341 16.3683 35.972 17.057 37.7498Z" fill="#EEEEEE"/>
</g>
<defs>
<linearGradient id="paint0_linear_65_43" x1="0" y1="0" x2="64" y2="64" gradientUnits="userSpaceOnUse">
<stop stop-color="#0C0C0C" stop-opacity="0.24"/>
<stop offset="1" stop-color="#242424" stop-opacity="0.16"/>
</linearGradient>
<clipPath id="clip0_65_43">
<rect width="64" height="64" fill="white"/>
</clipPath>
</defs>
</svg>
