<svg width="64" height="64" viewBox="0 0 64 64" fill="none" xmlns="http://www.w3.org/2000/svg">
<g clip-path="url(#clip0_10_19)">
<path d="M32 64C46.0222 64 53.8174 64 58.9087 58.9087C64 53.8174 64 46.0222 64 32C64 17.9778 64 10.1826 58.9087 5.09131C53.8174 -9.53674e-07 46.0222 0 32 0C17.9778 0 10.1826 -9.53674e-07 5.09131 5.09131C-9.53674e-07 10.1826 0 17.9778 0 32C0 46.0222 -9.53674e-07 53.8174 5.09131 58.9087C10.1826 64 17.9778 64 32 64Z" fill="url(#paint0_linear_10_19)"/>
<rect x="13" y="20" width="37" height="24" rx="5" fill="url(#paint1_linear_10_19)"/>
<rect x="13" y="20" width="37" height="24" rx="5" stroke="url(#paint2_linear_10_19)" stroke-width="2"/>
<path d="M20 39L25.3429 24H28.6772L34 39H31.0775L29.8824 35.4161H24.0775L22.8522 39H20ZM24.8207 33.2315H29.1593L28.4562 31.1174C28.2353 30.4262 28.0077 29.7047 27.7733 28.953C27.5457 28.2013 27.2912 27.3523 27.01 26.406C26.7288 27.3523 26.4711 28.2013 26.2367 28.953C26.0024 29.7047 25.7714 30.4262 25.5438 31.1174L24.8207 33.2315Z" fill="#E0E0E0" stroke="#F5F5F5" stroke-width="0.34"/>
<path d="M41 14V50H39V14H41Z" fill="#E0E0E0"/>
<path d="M44 50L36 50" stroke="#E0E0E0" stroke-width="1.6" stroke-linecap="round"/>
<path d="M44 14H36" stroke="#E0E0E0" stroke-width="1.6" stroke-linecap="round"/>
</g>
<defs>
<linearGradient id="paint0_linear_10_19" x1="0" y1="0" x2="64" y2="64" gradientUnits="userSpaceOnUse">
<stop stop-color="#0C0C0C"/>
<stop offset="1" stop-color="#242424"/>
</linearGradient>
<linearGradient id="paint1_linear_10_19" x1="19.8714" y1="20" x2="43.8596" y2="43.2457" gradientUnits="userSpaceOnUse">
<stop stop-color="#121212"/>
<stop offset="1" stop-color="#373737"/>
</linearGradient>
<linearGradient id="paint2_linear_10_19" x1="14.5" y1="20" x2="50.182" y2="41.1643" gradientUnits="userSpaceOnUse">
<stop stop-color="#565656"/>
<stop offset="0.480769" stop-color="#3F3F3F"/>
<stop offset="1" stop-color="#989898"/>
</linearGradient>
<clipPath id="clip0_10_19">
<rect width="64" height="64" fill="white"/>
</clipPath>
</defs>
</svg>
