<svg width="48" height="49" viewBox="0 0 48 49" fill="none" xmlns="http://www.w3.org/2000/svg">
<path d="M16.3526 14.1155C19.4481 16.4616 22.7776 21.2185 24.0001 23.7713C25.2226 21.2187 28.552 16.4615 31.6476 14.1155C33.8811 12.4226 37.5 11.1128 37.5 15.2808C37.5 16.1132 37.0273 22.2733 36.75 23.2734C35.7863 26.7504 32.2744 27.6372 29.1505 27.1004C34.611 28.0387 36.0001 31.1464 33.0001 34.2542C27.3027 40.1564 24.8113 32.7733 24.1726 30.8815C24.0556 30.5346 24.0008 30.3724 24 30.5103C23.9992 30.3724 23.9444 30.5346 23.8274 30.8815C23.189 32.7733 20.6976 40.1566 14.9998 34.2542C11.9999 31.1464 13.3889 28.0385 18.8495 27.1004C15.7255 27.6372 12.2136 26.7503 11.25 23.2734C10.9727 22.2732 10.5 16.1131 10.5 15.2808C10.5 11.1128 14.119 12.4226 16.3524 14.1155H16.3526Z" fill="black"/>
</svg>
