<svg width="48" height="49" viewBox="0 0 48 49" fill="none" xmlns="http://www.w3.org/2000/svg">
<path fill-rule="evenodd" clip-rule="evenodd" d="M7.5 25.2471C7.5 16.5546 14.5495 9.5 23.25 9.5C31.9512 9.5 39 16.5609 39 25.2529C39 33.9454 31.9505 41 23.25 41H21.9724V40.9432C13.8748 40.2924 7.5 33.5101 7.5 25.2471ZM23.6417 38.4396C30.7492 38.2324 36.4449 32.4043 36.4449 25.2529C36.4449 17.9698 30.5381 12.0546 23.25 12.0546C15.9613 12.0546 10.0551 17.9648 10.0551 25.2471C10.0551 32.5292 15.9667 38.4396 23.25 38.4396H23.6417Z" fill="black"/>
<path fill-rule="evenodd" clip-rule="evenodd" d="M16.8735 13.7084C16.6983 13.6533 16.5168 13.5962 16.3276 13.532L17.1485 11.1128C17.2239 11.1384 17.3597 11.1817 17.5183 11.2322C17.8031 11.3231 18.1613 11.4373 18.3747 11.5142L18.3861 11.5183L18.3975 11.5227C18.4559 11.545 18.5184 11.5687 18.5841 11.5935C18.9146 11.7185 19.3223 11.8727 19.6629 12.032L19.678 12.039L19.7455 12.0728C19.9058 12.1475 20.1465 12.2622 20.3469 12.3578C20.4594 12.4114 20.5593 12.459 20.6252 12.4901L20.6556 12.5045L20.6853 12.5204C20.6922 12.5242 20.7003 12.5285 20.7095 12.5334C20.7785 12.5704 20.9073 12.6393 21.0309 12.7148L21.0648 12.7355L21.0744 12.7422C21.0884 12.7503 21.1075 12.7612 21.1311 12.7743C21.1517 12.7858 21.1715 12.7967 21.1914 12.8076C21.1953 12.8098 21.1991 12.8119 21.203 12.8141C21.214 12.8201 21.2264 12.8269 21.2375 12.8332L21.2383 12.8336C21.244 12.8368 21.2585 12.8448 21.2751 12.8546C21.2902 12.8632 21.3134 12.8765 21.3425 12.8931C21.4313 12.9438 21.5749 13.0257 21.7082 13.1037C21.8455 13.1841 22.0551 13.308 22.2102 13.4167C22.3763 13.5188 22.559 13.6453 22.6806 13.7295C22.7025 13.7447 22.7224 13.7585 22.7399 13.7705C22.8334 13.8275 22.925 13.892 22.9886 13.9377C23.0798 14.003 23.179 14.077 23.2695 14.145C23.3113 14.1764 23.3495 14.2053 23.3856 14.2325C23.4336 14.2688 23.4779 14.3022 23.5221 14.3353C23.5585 14.3625 23.5889 14.385 23.6134 14.4028C23.6255 14.4116 23.6349 14.4184 23.642 14.4234C23.6481 14.4277 23.6509 14.4296 23.6511 14.4297L23.6844 14.4519L23.7164 14.4763C25.1265 15.5504 26.3821 16.8123 27.4539 18.2188L27.4549 18.2201L27.4559 18.2214C28.6407 19.7845 29.5761 21.5197 30.2249 23.3663C32.1578 28.7651 31.5893 35.0023 28.5514 39.9258L26.3768 38.5846C28.9949 34.3415 29.4989 28.9157 27.8181 24.2241L27.8167 24.2202L27.8154 24.2164C27.2554 22.6214 26.4468 21.12 25.4204 19.7655C24.4917 18.5472 23.4072 17.4561 22.1937 16.528C22.1265 16.4815 22.0521 16.4262 21.9913 16.3807C21.9452 16.3462 21.8911 16.3054 21.8377 16.265C21.8018 16.238 21.7663 16.2112 21.7338 16.1868C21.6461 16.1208 21.5664 16.0615 21.5004 16.0143C21.4416 15.9721 21.4171 15.9566 21.4173 15.9563C21.4171 15.9562 21.4173 15.9563 21.4173 15.9563L21.3796 15.9351L21.3352 15.905C21.27 15.8607 21.2118 15.8205 21.1586 15.7836C21.0416 15.7027 20.948 15.6379 20.8529 15.5815L20.7907 15.5445L20.733 15.5008C20.7366 15.5035 20.7364 15.5034 20.7313 15.5C20.7218 15.4937 20.6955 15.4762 20.6463 15.4457C20.5815 15.4054 20.5019 15.3579 20.4169 15.3081C20.2963 15.2376 20.1865 15.1749 20.0997 15.1253C20.0591 15.1022 20.0236 15.0819 19.9943 15.065L19.9917 15.0635C19.9872 15.0611 19.9806 15.0574 19.9706 15.0519C19.9676 15.0502 19.9642 15.0484 19.9607 15.0464C19.941 15.0356 19.9146 15.0211 19.8878 15.0062C19.8564 14.9887 19.8183 14.9672 19.7813 14.9455C19.761 14.9337 19.7232 14.9114 19.6808 14.884C19.6288 14.853 19.573 14.823 19.5066 14.7873C19.5056 14.7868 19.5046 14.7862 19.5036 14.7857C19.4241 14.7481 19.3252 14.7009 19.2202 14.6508C19.0226 14.5566 18.8034 14.4521 18.6513 14.3814L18.6349 14.3737L18.5661 14.3394C18.3249 14.2275 18.0361 14.1181 17.7126 13.9954C17.6423 13.9688 17.5703 13.9415 17.4969 13.9134C17.2975 13.8418 17.0904 13.7767 16.8735 13.7084ZM19.9943 15.065C19.9957 15.0658 19.9966 15.0663 19.9966 15.0663L19.9943 15.065ZM19.9943 15.065C19.9957 15.0658 19.9966 15.0663 19.9966 15.0663L19.9943 15.065Z" fill="black"/>
<path fill-rule="evenodd" clip-rule="evenodd" d="M22.2535 19.7881C26.1094 19.0919 29.6677 16.9291 32.1014 13.8506L34.106 15.4347C31.2936 18.9924 27.188 21.4932 22.7073 22.3021C20.4762 22.7044 18.1836 22.718 15.9461 22.3078C13.7146 21.9101 11.5613 21.109 9.61383 19.9394L10.9294 17.7495C12.6076 18.7573 14.4675 19.4497 16.3975 19.7933L16.4008 19.7939L16.4042 19.7945C18.3282 20.1476 20.3117 20.1382 22.2535 19.7881Z" fill="black"/>
<path fill-rule="evenodd" clip-rule="evenodd" d="M15.4273 38.2001C17.6087 27.0692 28.9523 20.9219 38.2296 23.4504L37.5575 25.9152C29.6823 23.7687 19.8248 29.0468 17.9347 38.6913L15.4273 38.2001Z" fill="black"/>
</svg>
