<svg width="48" height="48" viewBox="0 0 48 48" fill="none" xmlns="http://www.w3.org/2000/svg">
<path d="M30.2222 24C30.2222 27.4364 27.4364 30.2222 24 30.2222C20.5636 30.2222 17.7778 27.4364 17.7778 24C17.7778 20.5636 20.5636 17.7778 24 17.7778C27.4364 17.7778 30.2222 20.5636 30.2222 24ZM30.2222 24V26.3333C30.2222 28.4811 31.9634 30.2222 34.1111 30.2222C36.2589 30.2222 38 28.4811 38 26.3333V24C38 16.268 31.732 10 24 10C16.268 10 10 16.268 10 24C10 31.732 16.268 38 24 38H30.2222" stroke="black" stroke-width="2.6" stroke-linecap="round" stroke-linejoin="round"/>
</svg>
