<svg width="49" height="49" viewBox="0 0 49 49" fill="none" xmlns="http://www.w3.org/2000/svg">
<path fill-rule="evenodd" clip-rule="evenodd" d="M24.5 9.5C16.2125 9.5 9.5 16.2125 9.5 24.5C9.5 31.1375 13.7937 36.7438 19.7562 38.7313C20.5062 38.8625 20.7875 38.4125 20.7875 38.0188C20.7875 37.6625 20.7688 36.4813 20.7688 35.225C17 35.9188 16.025 34.3062 15.725 33.4625C15.5562 33.0312 14.825 31.7 14.1875 31.3437C13.6625 31.0625 12.9125 30.3687 14.1688 30.35C15.35 30.3312 16.1938 31.4375 16.475 31.8875C17.825 34.1562 19.9813 33.5188 20.8438 33.125C20.975 32.15 21.3687 31.4937 21.8 31.1187C18.4625 30.7437 14.975 29.45 14.975 23.7125C14.975 22.0812 15.5563 20.7312 16.5125 19.6812C16.3625 19.3062 15.8375 17.7687 16.6625 15.7062C16.6625 15.7062 17.9188 15.3125 20.7875 17.2438C21.9875 16.9063 23.2625 16.7375 24.5375 16.7375C25.8125 16.7375 27.0875 16.9063 28.2875 17.2438C31.1563 15.2938 32.4125 15.7062 32.4125 15.7062C33.2375 17.7687 32.7125 19.3062 32.5625 19.6812C33.5188 20.7312 34.1 22.0625 34.1 23.7125C34.1 29.4687 30.5938 30.7437 27.2563 31.1187C27.8 31.5875 28.2688 32.4875 28.2688 33.8938C28.2688 35.9 28.25 37.5125 28.25 38.0188C28.25 38.4125 28.5313 38.8813 29.2813 38.7313C35.2063 36.7438 39.5 31.1187 39.5 24.5C39.5 16.2125 32.7875 9.5 24.5 9.5Z" fill="#1B1F23"/>
</svg>
