<svg width="49" height="49" viewBox="0 0 49 49" fill="none" xmlns="http://www.w3.org/2000/svg">
<path fill-rule="evenodd" clip-rule="evenodd" d="M13.1879 11.1562C12.0944 11.1562 11.208 12.0101 11.208 13.0628V35.8658C11.208 36.9189 12.0944 37.7725 13.1879 37.7725H36.0201C37.1136 37.7725 38 36.9189 38 35.8658V13.0628C38 12.0101 37.1136 11.1562 36.0201 11.1562H13.1879ZM19.3295 33.4361V21.4173H15.2828V33.4361H19.3295ZM17.3061 19.7764C18.7173 19.7764 19.5956 18.8535 19.5956 17.7001C19.5693 16.5208 18.7173 15.6235 17.3329 15.6235C15.9487 15.6235 15.0436 16.5208 15.0436 17.7001C15.0436 18.8535 15.9217 19.7764 17.2798 19.7764H17.3061ZM21.5687 33.4359H25.6153V26.7242C25.6153 26.365 25.6416 26.0061 25.7485 25.7493C26.041 25.0316 26.7069 24.2883 27.8248 24.2883C29.2891 24.2883 29.8748 25.3905 29.8748 27.0062V33.4359H33.9212V26.5446C33.9212 22.8529 31.9248 21.1352 29.2624 21.1352C27.1157 21.1352 26.1532 22.2999 25.6155 23.1188V23.1602H25.5884L25.6155 23.1188V21.4172H21.5688C21.6219 22.5449 21.5687 33.4359 21.5687 33.4359Z" fill="black"/>
</svg>
