<svg width="48" height="49" viewBox="0 0 48 49" fill="none" xmlns="http://www.w3.org/2000/svg">
<g clip-path="url(#clip0_163_9)">
<path d="M9 24.5015C9.07801 20.2441 10.5812 16.6887 13.5125 13.8384C16.4437 10.9881 19.9391 9.539 24.0015 9.5C28.3759 9.57801 31.9613 11.0722 34.7546 13.9824C37.5479 16.8927 38.964 20.4001 39.003 24.5015C38.925 28.7199 37.4218 32.2663 34.4905 35.1376C31.5593 38.0059 28.0639 39.461 24.0015 39.5C22.5944 39.5 21.1902 39.284 19.7831 38.8549C20.0561 38.4259 20.3291 37.9368 20.6022 37.3908C20.9142 36.7277 21.3042 35.4766 21.7753 33.6404C21.8923 33.1334 22.0693 32.4493 22.3033 31.5882C22.5764 32.0563 23.0444 32.4853 23.7105 32.8783C25.4686 33.6974 27.3228 33.6194 29.276 32.6443C31.3072 31.4712 32.7144 29.656 33.4945 27.1958C34.1965 24.6185 34.1095 22.2243 33.2304 20.0191C32.3513 17.8108 30.7792 16.2207 28.514 15.2426C25.6637 14.4235 22.8884 14.5105 20.1941 15.5066C17.4999 16.5027 15.6247 18.2129 14.5686 20.6341C14.2955 21.5312 14.1305 22.4223 14.0705 23.3014C14.0105 24.1805 14.0405 25.0386 14.1575 25.8786C14.2745 26.7187 14.5686 27.4718 15.0366 28.1349C15.5047 28.7979 16.1317 29.308 16.9118 29.659C17.1068 29.737 17.2628 29.737 17.3798 29.659C17.5359 29.581 17.6919 29.269 17.8479 28.7229C18.0039 28.1769 18.0639 27.8048 18.0249 27.6098C17.9859 27.5318 17.9079 27.3938 17.7909 27.1988C16.9718 25.8696 16.6958 24.4745 16.9718 23.0104C17.2448 21.5462 17.8509 20.3041 18.787 19.29C20.2331 17.9999 21.9223 17.2978 23.8545 17.1808C25.7867 17.0638 27.4398 17.5918 28.805 18.7619C29.5461 19.62 30.0261 20.6551 30.2391 21.8672C30.4521 23.0794 30.4551 24.2405 30.2391 25.3536C30.0231 26.4667 29.6421 27.5108 29.096 28.4889C28.1179 30.0131 26.9658 30.7931 25.6397 30.8321C24.8596 30.7931 24.2235 30.4901 23.7345 29.923C23.2454 29.356 23.0984 28.7019 23.2964 27.9608C23.3744 27.5318 23.6085 26.6917 23.9985 25.4406C24.3885 24.1895 24.6046 23.2534 24.6436 22.6293C24.5266 21.1442 23.8425 20.3821 22.5914 20.3431C21.6133 20.4601 20.8932 20.9011 20.4221 21.6602C19.9511 22.4193 19.6991 23.2924 19.6601 24.2675C19.7771 25.4016 19.9541 26.1817 20.1881 26.6107C19.7591 28.3689 19.426 29.776 19.192 30.8291C19.114 31.1022 18.898 31.9422 18.547 33.3494C18.1959 34.7565 18.0009 35.8306 17.9619 36.5717V38.2129C15.1896 36.9227 12.9994 35.0596 11.4002 32.6173C9.80108 30.1751 9 27.4688 9 24.5015Z" fill="black"/>
</g>
<defs>
<clipPath id="clip0_163_9">
<rect width="30" height="30" fill="white" transform="translate(9 9.5)"/>
</clipPath>
</defs>
</svg>
