<svg width="48" height="48" viewBox="0 0 48 48" fill="none" xmlns="http://www.w3.org/2000/svg">
<g clip-path="url(#clip0_163_23)">
<path d="M13.5 10.5C11.8431 10.5 10.5 11.8431 10.5 13.5V34.5C10.5 36.1569 11.8431 37.5 13.5 37.5H34.5C36.1569 37.5 37.5 36.1569 37.5 34.5V13.5C37.5 11.8431 36.1569 10.5 34.5 10.5H13.5ZM17.439 33C16.0924 33 15 31.9099 15 30.5644C15 29.2189 16.0924 28.1288 17.439 28.1288C18.7856 28.1288 19.8769 29.2189 19.8769 30.5644C19.8769 31.9099 18.7856 33 17.439 33ZM25.0575 33C24.0654 33 23.2788 32.1913 23.0573 31.2242C22.345 28.1142 19.8879 25.6612 16.7733 24.9515C15.8074 24.7314 15 23.9459 15 22.9552V22.9552C15 21.9524 15.8215 21.1273 16.8118 21.2849C21.8989 22.0944 25.9162 26.1051 26.7296 31.1853C26.8883 32.177 26.0619 33 25.0575 33V33ZM31.1891 33C30.1933 33 29.3971 32.1903 29.2715 31.2024C28.4445 24.6971 23.2931 19.5589 16.7933 18.7269C15.8075 18.6007 15 17.8056 15 16.8116V16.8116C15 15.8121 15.8144 14.9934 16.8087 15.0957C25.297 15.9692 32.0416 22.7118 32.9063 31.1919C33.0077 32.1862 32.1886 33 31.1891 33V33Z" fill="black"/>
</g>
<defs>
<clipPath id="clip0_163_23">
<rect width="27" height="27" fill="white" transform="translate(10.5 10.5)"/>
</clipPath>
</defs>
</svg>
