<svg width="49" height="49" viewBox="0 0 49 49" fill="none" xmlns="http://www.w3.org/2000/svg">
<path fill-rule="evenodd" clip-rule="evenodd" d="M37.3924 14.6272C38.8131 14.973 39.9297 15.9879 40.31 17.2794C40.9972 19.6179 41 24.5 41 24.5C41 24.5 41 29.3821 40.31 31.7206C39.9297 33.0121 38.8131 34.0271 37.3924 34.3727C34.82 35 24.4999 35 24.4999 35C24.4999 35 14.18 35 11.6075 34.3727C10.1868 34.0271 9.0703 33.0121 8.68999 31.7206C8 29.3821 8 24.5 8 24.5C8 24.5 8 19.6179 8.68999 17.2794C9.0703 15.9879 10.1868 14.973 11.6075 14.6272C14.18 14 24.4999 14 24.4999 14C24.4999 14 34.82 14 37.3924 14.6272ZM29.7701 24.5004L21.1968 28.9997V20.0011L29.7701 24.5004Z" fill="black"/>
</svg>
