<svg width="128" height="128" viewBox="0 0 128 128" fill="none" xmlns="http://www.w3.org/2000/svg">
<path d="M123.681 79.8835C119.01 89.7135 113.564 99.1549 107.393 108.118L105.402 110.981C102.952 114.539 99.7402 117.507 96.0006 119.667C92.261 121.828 88.0869 123.127 83.7828 123.472L80.2883 123.753C69.4465 124.625 58.553 124.625 47.7116 123.753L44.2171 123.472C39.9128 123.127 35.7391 121.828 31.9994 119.667C28.2598 117.507 25.048 114.539 22.5975 110.981L20.6071 108.092C14.4362 99.1293 8.98949 89.6878 4.31874 79.8579L2.81471 76.6937C0.96151 72.791 0 68.5243 0 64.2033C0 59.8823 0.96151 55.6158 2.81471 51.713L4.31874 48.5488C8.98949 38.7186 14.4362 29.2772 20.6071 20.3142L22.5975 17.4254C25.048 13.8673 28.2598 10.8997 31.9994 8.73923C35.7391 6.57872 39.9128 5.27908 44.2171 4.93511L47.7116 4.65329C58.553 3.78217 69.4465 3.78217 80.2883 4.65329L83.7828 4.93511C88.0901 5.28356 92.2662 6.58896 96.0058 8.75652C99.746 10.9241 102.956 13.8987 105.402 17.4639L107.393 20.3527C113.564 29.3156 119.01 38.757 123.681 48.5872L125.185 51.7514C127.038 55.6542 128 59.9208 128 64.2418C128 68.5627 127.038 72.8294 125.185 76.7321L123.681 79.8835Z" fill="#7148FC"/>
<g opacity="0.2">
<path d="M87.9952 79.5C85.1823 79.5 82.7612 78.9303 80.7316 77.7909C78.714 76.6397 77.1592 75.0137 76.0673 72.9129C74.9754 70.8003 74.4294 68.302 74.4294 65.418C74.4294 62.6051 74.9754 60.1365 76.0673 58.012C77.1592 55.8876 78.6962 54.2319 80.6782 53.045C82.6721 51.8582 85.0102 51.2648 87.6925 51.2648C89.4965 51.2648 91.1759 51.5555 92.7307 52.1371C94.2974 52.7068 95.6623 53.5673 96.8254 54.7185C98.0004 55.8698 98.9142 57.3177 99.567 59.0624C100.22 60.7952 100.546 62.8247 100.546 65.1509V67.2339H77.4559V62.5339H93.4072C93.4072 61.442 93.1699 60.4747 92.6951 59.6321C92.2204 58.7894 91.5617 58.1307 90.719 57.656C89.8882 57.1694 88.9209 56.9261 87.8172 56.9261C86.6659 56.9261 85.6452 57.1931 84.7551 57.7272C83.8768 58.2494 83.1884 58.9556 82.6899 59.8457C82.1915 60.724 81.9363 61.7031 81.9244 62.7832V67.2517C81.9244 68.6047 82.1737 69.7737 82.6721 70.7588C83.1825 71.7439 83.9005 72.5035 84.8263 73.0376C85.752 73.5716 86.8499 73.8387 88.1198 73.8387C88.9625 73.8387 89.7339 73.72 90.4342 73.4826C91.1344 73.2453 91.7338 72.8892 92.2322 72.4145C92.7307 71.9397 93.1105 71.3582 93.3716 70.6698L100.386 71.1327C100.03 72.818 99.3 74.2897 98.1962 75.5478C97.1043 76.7939 95.6919 77.7672 93.9591 78.4674C92.2382 79.1558 90.2502 79.5 87.9952 79.5Z" fill="white"/>
<path d="M29.8064 78.9658V51.6207H37.0343V56.4453H37.3548C37.9245 54.843 38.874 53.579 40.2032 52.6533C41.5325 51.7275 43.1229 51.2646 44.9744 51.2646C46.8496 51.2646 48.4459 51.7335 49.7633 52.6711C51.0807 53.5968 51.959 54.8549 52.3982 56.4453H52.683C53.2408 54.8786 54.2496 53.6265 55.7095 52.6889C57.1812 51.7394 58.9199 51.2646 60.9257 51.2646C63.4774 51.2646 65.5485 52.0776 67.1389 53.7036C68.7411 55.3177 69.5423 57.6084 69.5423 60.5755V78.9658H61.9761V62.0709C61.9761 60.5518 61.5725 59.4124 60.7655 58.6528C59.9584 57.8932 58.9496 57.5134 57.739 57.5134C56.3623 57.5134 55.2881 57.9526 54.5167 58.8308C53.7452 59.6972 53.3595 60.8425 53.3595 62.2668V78.9658H46.0069V61.9107C46.0069 60.5696 45.6212 59.5014 44.8498 58.7062C44.0902 57.911 43.0873 57.5134 41.8411 57.5134C40.9984 57.5134 40.2388 57.7271 39.5623 58.1543C38.8977 58.5697 38.3695 59.1572 37.9779 59.9168C37.5862 60.6645 37.3904 61.5428 37.3904 62.5516V78.9658H29.8064Z" fill="white"/>
</g>
<path d="M86.2305 77.7352C83.4177 77.7352 80.9965 77.1655 78.967 76.0261C76.9493 74.8749 75.3946 73.2489 74.3027 71.1482C73.2107 69.0356 72.6648 66.5373 72.6648 63.6532C72.6648 60.8404 73.2107 58.3717 74.3027 56.2473C75.3946 54.1228 76.9315 52.4671 78.9136 51.2803C80.9075 50.0934 83.2456 49.5 85.9279 49.5C87.7319 49.5 89.4113 49.7908 90.9661 50.3723C92.5327 50.942 93.8976 51.8025 95.0607 52.9537C96.2357 54.105 97.1496 55.5529 97.8024 57.2976C98.4551 59.0304 98.7815 61.0599 98.7815 63.3862V65.4691H75.6913V60.7692H91.6426C91.6426 59.6773 91.4052 58.71 90.9305 57.8673C90.4557 57.0246 89.797 56.3659 88.9544 55.8912C88.1236 55.4046 87.1563 55.1613 86.0525 55.1613C84.9013 55.1613 83.8806 55.4283 82.9904 55.9624C82.1121 56.4846 81.4238 57.1908 80.9253 58.0809C80.4268 58.9592 80.1716 59.9384 80.1598 61.0184V65.4869C80.1598 66.8399 80.409 68.0089 80.9075 68.994C81.4178 69.9791 82.1359 70.7387 83.0616 71.2728C83.9874 71.8069 85.0852 72.0739 86.3552 72.0739C87.1978 72.0739 87.9693 71.9552 88.6695 71.7179C89.3698 71.4805 89.9691 71.1244 90.4676 70.6497C90.9661 70.175 91.3459 69.5934 91.607 68.905L98.6213 69.3679C98.2652 71.0532 97.5353 72.5249 96.4315 73.783C95.3396 75.0292 93.9273 76.0024 92.1945 76.7026C90.4735 77.391 88.4856 77.7352 86.2305 77.7352Z" fill="white"/>
<path d="M28.042 77.2011V49.8561H35.2699V54.6806H35.5904C36.1601 53.0784 37.1096 51.8144 38.4388 50.8886C39.7681 49.9629 41.3585 49.5 43.21 49.5C45.0852 49.5 46.6815 49.9688 47.9989 50.9064C49.3163 51.8322 50.1946 53.0902 50.6338 54.6806H50.9186C51.4764 53.114 52.4852 51.8618 53.9451 50.9242C55.4168 49.9747 57.1555 49.5 59.1613 49.5C61.713 49.5 63.7841 50.313 65.3745 51.939C66.9767 53.5531 67.7779 55.8437 67.7779 58.8109V77.2011H60.2117V60.3063C60.2117 58.7871 59.8081 57.6477 59.0011 56.8882C58.194 56.1286 57.1852 55.7488 55.9746 55.7488C54.5978 55.7488 53.5237 56.1879 52.7523 57.0662C51.9808 57.9326 51.5951 59.0779 51.5951 60.5021V77.2011H44.2425V60.1461C44.2425 58.8049 43.8568 57.7368 43.0854 56.9416C42.3258 56.1464 41.3229 55.7488 40.0767 55.7488C39.234 55.7488 38.4744 55.9624 37.7979 56.3897C37.1333 56.8051 36.6051 57.3926 36.2135 58.1521C35.8218 58.8999 35.626 59.7781 35.626 60.787V77.2011H28.042Z" fill="white"/>
</svg>
