<svg width="192" height="192" viewBox="0 0 192 192" fill="none" xmlns="http://www.w3.org/2000/svg">
<path d="M0 96C0 42.9807 42.9807 0 96 0V0C149.019 0 192 42.9807 192 96V96C192 149.019 149.019 192 96 192V192C42.9807 192 0 149.019 0 96V96Z" fill="url(#paint0_linear_2367_2)"/>
<path opacity="0.32" d="M146.963 120.033C147.875 120.033 148.576 120.454 149.067 121.295C149.629 122.136 149.909 123.292 149.909 124.764C149.909 127.497 149.243 129.669 147.91 131.281C144.544 135.345 141.142 138.499 137.706 140.741C134.269 142.914 130.201 144 125.502 144C120.943 144 117.051 142.774 113.824 140.321C110.668 137.868 107.653 133.663 104.777 127.707C102.463 122.942 100.639 119.438 99.3064 117.195C97.9738 114.883 96.6413 113.236 95.3087 112.255C94.0463 111.274 92.4682 110.678 90.5746 110.468C90.294 111.939 89.4875 116.564 88.1549 124.343C87.5938 127.847 87.2431 129.984 87.1029 130.755C86.4015 135.03 84.9988 138.324 82.8948 140.636C80.7907 142.879 77.5995 144 73.3213 144C68.6222 144 64.4492 142.633 60.8021 139.9C57.2252 137.097 54.4549 133.243 52.4911 128.338C50.5273 123.362 49.5454 117.721 49.5454 111.414C49.5454 99.6406 51.5793 89.4793 55.6472 80.9298C59.7852 72.3803 65.5363 65.863 72.9005 61.378C80.3348 56.8229 88.8913 54.5454 98.57 54.5454C105.303 54.5454 110.949 55.5615 115.508 57.5938C120.066 59.6261 123.433 62.4292 125.607 66.0032C127.851 69.5771 128.974 73.6066 128.974 78.0916C128.974 82.016 128.027 85.8703 126.133 89.6545C124.31 93.3686 121.539 96.6623 117.822 99.5355C114.105 102.409 109.581 104.546 104.251 105.948C107.617 106.859 110.212 108.33 112.036 110.363C113.859 112.395 115.683 115.373 117.507 119.297C119.47 123.502 121.399 126.586 123.293 128.548C125.256 130.51 127.501 131.491 130.026 131.491C132.27 131.491 134.409 130.755 136.443 129.284C138.477 127.742 141.037 125.149 144.123 121.505C144.965 120.524 145.911 120.033 146.963 120.033ZM76.0566 110.363C73.672 110.363 72.0238 109.802 71.112 108.681C70.2704 107.559 69.8496 106.298 69.8496 104.896C69.8496 103.215 70.3756 101.883 71.4276 100.902C72.5498 99.9209 73.8122 99.4304 75.2149 99.4304H77.845C78.9672 92.5627 80.0192 86.6411 81.0011 81.6656C81.9129 77.1105 84.8585 74.833 89.8382 74.833C93.8359 74.833 95.8347 76.62 95.8347 80.1939C95.8347 80.9648 95.7997 81.5605 95.7295 81.9809L92.5734 99.4304C96.3607 99.2201 99.7974 98.3091 102.883 96.6973C106.039 95.0855 108.529 92.843 110.353 89.9698C112.246 87.0966 113.193 83.838 113.193 80.1939C113.193 75.779 111.685 72.3102 108.669 69.7874C105.654 67.2646 101.235 66.0032 95.4139 66.0032C88.5406 66.0032 82.509 67.7201 77.319 71.1539C72.1991 74.5176 68.2014 79.5632 65.3259 86.2907C62.4503 92.9481 61.0125 101.077 61.0125 110.678C61.0125 115.163 61.4684 119.017 62.3802 122.241C63.2919 125.464 64.4141 127.882 65.7467 129.494C67.0792 131.106 68.3417 131.912 69.534 131.912C70.4457 131.912 71.1822 131.456 71.7432 130.545C72.3745 129.634 72.8654 128.162 73.2161 126.13L76.0566 110.363Z" fill="white"/>
<path opacity="0.64" d="M143.691 116.761C144.602 116.761 145.304 117.181 145.795 118.022C146.356 118.863 146.636 120.019 146.636 121.491C146.636 124.224 145.97 126.397 144.637 128.008C141.271 132.073 137.869 135.226 134.433 137.469C130.996 139.641 126.928 140.727 122.229 140.727C117.67 140.727 113.778 139.501 110.552 137.048C107.396 134.596 104.38 130.391 101.504 124.434C99.1898 119.669 97.3663 116.165 96.0337 113.923C94.7011 111.61 93.3686 109.963 92.036 108.982C90.7736 108.001 89.1955 107.405 87.3019 107.195C87.0213 108.667 86.2148 113.292 84.8822 121.071C84.3211 124.575 83.9704 126.712 83.8302 127.483C83.1288 131.758 81.7261 135.051 79.622 137.364C77.518 139.606 74.3268 140.727 70.0486 140.727C65.3495 140.727 61.1765 139.361 57.5294 136.628C53.9525 133.825 51.1822 129.971 49.2184 125.065C47.2546 120.09 46.2727 114.448 46.2727 108.141C46.2727 96.3681 48.3066 86.2068 52.3745 77.6573C56.5125 69.1078 62.2636 62.5905 69.6278 58.1056C77.0621 53.5505 85.6186 51.2729 95.2973 51.2729C102.03 51.2729 107.676 52.2891 112.235 54.3213C116.794 56.3536 120.16 59.1567 122.334 62.7307C124.579 66.3047 125.701 70.3342 125.701 74.8191C125.701 78.7435 124.754 82.5978 122.86 86.382C121.037 90.0962 118.267 93.3898 114.549 96.263C110.832 99.1362 106.309 101.274 100.978 102.675C104.345 103.586 106.94 105.058 108.763 107.09C110.587 109.122 112.41 112.101 114.234 116.025C116.198 120.23 118.126 123.313 120.02 125.275C121.984 127.237 124.228 128.219 126.753 128.219C128.997 128.219 131.136 127.483 133.17 126.011C135.204 124.469 137.764 121.877 140.85 118.232C141.692 117.251 142.639 116.761 143.691 116.761ZM72.7839 107.09C70.3993 107.09 68.7511 106.529 67.8393 105.408C66.9977 104.287 66.5769 103.026 66.5769 101.624C66.5769 99.9421 67.1029 98.6106 68.1549 97.6295C69.2771 96.6484 70.5395 96.1579 71.9422 96.1579H74.5723C75.6945 89.2903 76.7465 83.3687 77.7284 78.3931C78.6402 73.8381 81.5858 71.5605 86.5654 71.5605C90.5632 71.5605 92.562 73.3475 92.562 76.9215C92.562 77.6923 92.5269 78.288 92.4568 78.7085L89.3007 96.1579C93.088 95.9477 96.5247 95.0366 99.6106 93.4249C102.767 91.8131 105.257 89.5706 107.08 86.6974C108.974 83.8242 109.921 80.5655 109.921 76.9215C109.921 72.5066 108.413 69.0377 105.397 66.5149C102.381 63.9921 97.9624 62.7307 92.1412 62.7307C85.2679 62.7307 79.2363 64.4476 74.0463 67.8814C68.9264 71.2452 64.9287 76.2908 62.0532 83.0183C59.1776 89.6757 57.7398 97.8047 57.7398 107.405C57.7398 111.89 58.1957 115.745 59.1075 118.968C60.0192 122.192 61.1414 124.61 62.474 126.221C63.8065 127.833 65.069 128.639 66.2613 128.639C67.173 128.639 67.9095 128.184 68.4705 127.273C69.1017 126.362 69.5927 124.89 69.9434 122.858L72.7839 107.09Z" fill="white"/>
<path d="M140.418 113.488C141.33 113.488 142.031 113.908 142.522 114.749C143.083 115.59 143.364 116.747 143.364 118.218C143.364 120.951 142.697 123.124 141.365 124.735C137.998 128.8 134.597 131.953 131.16 134.196C127.723 136.368 123.656 137.455 118.957 137.455C114.398 137.455 110.505 136.228 107.279 133.775C104.123 131.323 101.107 127.118 98.2316 121.161C95.9171 116.396 94.0936 112.892 92.761 110.65C91.4284 108.337 90.0959 106.69 88.7633 105.709C87.5009 104.728 85.9228 104.132 84.0292 103.922C83.7486 105.394 82.9421 110.019 81.6095 117.798C81.0484 121.302 80.6977 123.439 80.5575 124.21C79.8561 128.485 78.4534 131.778 76.3493 134.091C74.2453 136.333 71.0541 137.455 66.7759 137.455C62.0768 137.455 57.9038 136.088 54.2567 133.355C50.6798 130.552 47.9095 126.698 45.9457 121.792C43.9819 116.817 43 111.175 43 104.868C43 93.0952 45.0339 82.9339 49.1018 74.3844C53.2398 65.8348 58.9909 59.3176 66.3551 54.8326C73.7894 50.2775 82.3459 48 92.0246 48C98.7576 48 104.403 49.0161 108.962 51.0484C113.521 53.0807 116.888 55.8838 119.062 59.4577C121.306 63.0317 122.428 67.0612 122.428 71.5462C122.428 75.4706 121.481 79.3249 119.588 83.1091C117.764 86.8232 114.994 90.1169 111.277 92.9901C107.56 95.8633 103.036 98.0006 97.7055 99.4022C101.072 100.313 103.667 101.785 105.491 103.817C107.314 105.849 109.138 108.828 110.961 112.752C112.925 116.957 114.854 120.04 116.747 122.002C118.711 123.965 120.955 124.946 123.48 124.946C125.725 124.946 127.864 124.21 129.898 122.738C131.932 121.196 134.492 118.604 137.577 114.96C138.419 113.978 139.366 113.488 140.418 113.488ZM69.5111 103.817C67.1265 103.817 65.4784 103.256 64.5666 102.135C63.725 101.014 63.3042 99.7526 63.3042 98.351C63.3042 96.6692 63.8302 95.3377 64.8822 94.3566C66.0044 93.3755 67.2668 92.8849 68.6695 92.8849H71.2996C72.4218 86.0173 73.4738 80.0957 74.4557 75.1202C75.3674 70.5651 78.3131 68.2876 83.2927 68.2876C87.2905 68.2876 89.2893 70.0746 89.2893 73.6485C89.2893 74.4194 89.2542 75.0151 89.1841 75.4355L86.028 92.8849C89.8153 92.6747 93.252 91.7637 96.3379 90.1519C99.494 88.5401 101.984 86.2976 103.807 83.4244C105.701 80.5512 106.648 77.2926 106.648 73.6485C106.648 69.2336 105.14 65.7648 102.124 63.242C99.1083 60.7192 94.6897 59.4577 88.8685 59.4577C81.9952 59.4577 75.9636 61.1747 70.7736 64.6085C65.6537 67.9722 61.656 73.0178 58.7804 79.7453C55.9049 86.4027 54.4671 94.5318 54.4671 104.132C54.4671 108.617 54.923 112.472 55.8348 115.695C56.7465 118.919 57.8687 121.337 59.2013 122.948C60.5338 124.56 61.7963 125.366 62.9886 125.366C63.9003 125.366 64.6367 124.911 65.1978 124C65.829 123.089 66.32 121.617 66.6707 119.585L69.5111 103.817Z" fill="white"/>
<defs>
<linearGradient id="paint0_linear_2367_2" x1="96" y1="0" x2="96" y2="192" gradientUnits="userSpaceOnUse">
<stop stop-color="#0866FF"/>
<stop offset="1" stop-color="#0042AD"/>
</linearGradient>
</defs>
</svg>
