<svg width="64" height="64" viewBox="0 0 64 64" fill="none" xmlns="http://www.w3.org/2000/svg">
<path d="M32 64C46.0222 64 53.8174 64 58.9087 58.9087C64 53.8174 64 46.0222 64 32C64 17.9778 64 10.1826 58.9087 5.09131C53.8174 -7.62939e-07 46.0222 0 32 0C17.9778 0 10.1826 -7.62939e-07 5.09131 5.09131C-7.62939e-07 10.1826 0 17.9778 0 32C0 46.0222 -7.62939e-07 53.8174 5.09131 58.9087C10.1826 64 17.9778 64 32 64Z" fill="url(#paint0_linear_122_20)"/>
<path d="M23.5901 33.6267L27.007 43.0841C27.007 43.0841 27.4342 43.969 27.8916 43.969C28.349 43.969 35.1528 36.8909 35.1528 36.8909L42.7188 22.2773L23.712 31.1854L23.5901 33.6267Z" fill="#CCCCCC"/>
<path d="M28.1207 36.0521L27.4647 43.0232C27.4647 43.0232 27.1902 45.1592 29.3257 43.0232C31.4612 40.8872 33.5053 39.24 33.5053 39.24" fill="#A9C6D8"/>
<path d="M23.6518 33.9642L16.6232 31.6741C16.6232 31.6741 15.7832 31.3333 16.0537 30.5605C16.1093 30.4011 16.2217 30.2655 16.5577 30.0325C18.115 28.947 45.3831 19.1461 45.3831 19.1461C45.3831 19.1461 46.153 18.8867 46.6071 19.0592C46.7194 19.094 46.8205 19.158 46.9 19.2446C46.9795 19.3313 47.0345 19.4375 47.0595 19.5524C47.1086 19.7554 47.1291 19.9642 47.1205 20.1728C47.1183 20.3533 47.0965 20.5206 47.0799 20.7829C46.9138 23.4625 41.9439 43.4612 41.9439 43.4612C41.9439 43.4612 41.6465 44.6315 40.5812 44.6715C40.3194 44.68 40.0585 44.6357 39.8142 44.5411C39.5699 44.4466 39.3471 44.3039 39.1592 44.1215C37.0685 42.3231 29.8426 37.467 28.2459 36.399C28.2099 36.3744 28.1796 36.3425 28.1569 36.3052C28.1343 36.2679 28.12 36.2263 28.1149 36.183C28.0925 36.0704 28.2149 35.931 28.2149 35.931C28.2149 35.931 40.7972 24.747 41.132 23.5729C41.1579 23.4819 41.06 23.4371 40.9285 23.4769C40.0928 23.7843 25.6059 32.9329 24.007 33.9426C23.8919 33.9774 23.7703 33.9848 23.6518 33.9642Z" fill="white"/>
<defs>
<linearGradient id="paint0_linear_122_20" x1="0" y1="0" x2="64" y2="64" gradientUnits="userSpaceOnUse">
<stop stop-color="#0C0A09"/>
<stop offset="1" stop-color="#57534E"/>
</linearGradient>
</defs>
</svg>
