<svg width="64" height="64" viewBox="0 0 64 64" fill="none" xmlns="http://www.w3.org/2000/svg">
<path d="M32 64C46.0222 64 53.8174 64 58.9087 58.9087C64 53.8174 64 46.0222 64 32C64 17.9778 64 10.1826 58.9087 5.09131C53.8174 -7.62939e-07 46.0222 0 32 0C17.9778 0 10.1826 -7.62939e-07 5.09131 5.09131C-7.62939e-07 10.1826 0 17.9778 0 32C0 46.0222 -7.62939e-07 53.8174 5.09131 58.9087C10.1826 64 17.9778 64 32 64Z" fill="url(#paint0_linear_122_6)"/>
<g filter="url(#filter0_dd_122_6)">
<path d="M24.9914 27.9496L15.4084 37.5327C14.8639 38.0772 14.8639 38.8395 15.4084 39.2751L17.3685 41.2352C17.913 41.7797 18.6753 41.7797 19.1109 41.2352L28.694 31.6522C29.2385 31.1077 29.2385 30.3454 28.694 29.9098L26.7338 27.9496C26.2982 27.514 25.427 27.514 24.9914 27.9496Z" fill="url(#paint1_linear_122_6)"/>
<mask id="mask0_122_6" style="mask-type:alpha" maskUnits="userSpaceOnUse" x="15" y="27" width="15" height="15">
<path d="M24.9914 27.9496L15.4084 37.5327C14.8639 38.0772 14.8639 38.8395 15.4084 39.2751L17.3685 41.2352C17.913 41.7797 18.6753 41.7797 19.1109 41.2352L28.694 31.6522C29.2385 31.1077 29.2385 30.3454 28.694 29.9098L26.7338 27.9496C26.2982 27.514 25.427 27.514 24.9914 27.9496Z" fill="url(#paint2_linear_122_6)"/>
</mask>
<g mask="url(#mask0_122_6)">
<g filter="url(#filter1_dd_122_6)">
<path d="M19.1109 20.3267L28.694 29.9098C29.2385 30.4542 29.2385 31.2165 28.694 31.6521L26.7338 33.6123C26.1893 34.1568 25.427 34.1568 24.9914 33.6123L15.4084 24.0292C14.8639 23.4848 14.8639 22.7225 15.4084 22.2869L17.3685 20.3267C17.8041 19.8911 18.6753 19.8911 19.1109 20.3267Z" fill="url(#paint3_linear_122_6)"/>
</g>
</g>
<path d="M19.1109 20.3267L28.694 29.9098C29.2385 30.4542 29.2385 31.2165 28.694 31.6521L26.7338 33.6123C26.1893 34.1568 25.427 34.1568 24.9914 33.6123L15.4084 24.0292C14.8639 23.4848 14.8639 22.7225 15.4084 22.2869L17.3685 20.3267C17.8041 19.8911 18.6753 19.8911 19.1109 20.3267Z" fill="url(#paint4_linear_122_6)"/>
</g>
<g filter="url(#filter2_dd_122_6)">
<path d="M47.6151 37.6001H30.1914C29.538 37.6001 29.1024 38.0357 29.1024 38.6891V41.956C29.1024 42.6094 29.538 43.045 30.1914 43.045H47.6151C48.2685 43.045 48.7041 42.6094 48.7041 41.956V38.6891C48.7041 38.0357 48.2685 37.6001 47.6151 37.6001Z" fill="url(#paint5_linear_122_6)"/>
</g>
<defs>
<filter id="filter0_dd_122_6" x="10.2" y="16.8" width="23.7024" height="31.2436" filterUnits="userSpaceOnUse" color-interpolation-filters="sRGB">
<feFlood flood-opacity="0" result="BackgroundImageFix"/>
<feColorMatrix in="SourceAlpha" type="matrix" values="0 0 0 0 0 0 0 0 0 0 0 0 0 0 0 0 0 0 127 0" result="hardAlpha"/>
<feOffset dy="0.8"/>
<feGaussianBlur stdDeviation="0.8"/>
<feColorMatrix type="matrix" values="0 0 0 0 0 0 0 0 0 0 0 0 0 0 0 0 0 0 0.1 0"/>
<feBlend mode="normal" in2="BackgroundImageFix" result="effect1_dropShadow_122_6"/>
<feColorMatrix in="SourceAlpha" type="matrix" values="0 0 0 0 0 0 0 0 0 0 0 0 0 0 0 0 0 0 127 0" result="hardAlpha"/>
<feOffset dy="1.6"/>
<feGaussianBlur stdDeviation="2.4"/>
<feColorMatrix type="matrix" values="0 0 0 0 0 0 0 0 0 0 0 0 0 0 0 0 0 0 0.2 0"/>
<feBlend mode="normal" in2="effect1_dropShadow_122_6" result="effect2_dropShadow_122_6"/>
<feBlend mode="normal" in="SourceGraphic" in2="effect2_dropShadow_122_6" result="shape"/>
</filter>
<filter id="filter1_dd_122_6" x="10.2" y="16.8" width="23.7024" height="23.6206" filterUnits="userSpaceOnUse" color-interpolation-filters="sRGB">
<feFlood flood-opacity="0" result="BackgroundImageFix"/>
<feColorMatrix in="SourceAlpha" type="matrix" values="0 0 0 0 0 0 0 0 0 0 0 0 0 0 0 0 0 0 127 0" result="hardAlpha"/>
<feOffset dy="0.8"/>
<feGaussianBlur stdDeviation="0.8"/>
<feColorMatrix type="matrix" values="0 0 0 0 0 0 0 0 0 0 0 0 0 0 0 0 0 0 0.1 0"/>
<feBlend mode="normal" in2="BackgroundImageFix" result="effect1_dropShadow_122_6"/>
<feColorMatrix in="SourceAlpha" type="matrix" values="0 0 0 0 0 0 0 0 0 0 0 0 0 0 0 0 0 0 127 0" result="hardAlpha"/>
<feOffset dy="1.6"/>
<feGaussianBlur stdDeviation="2.4"/>
<feColorMatrix type="matrix" values="0 0 0 0 0 0 0 0 0 0 0 0 0 0 0 0 0 0 0.2 0"/>
<feBlend mode="normal" in2="effect1_dropShadow_122_6" result="effect2_dropShadow_122_6"/>
<feBlend mode="normal" in="SourceGraphic" in2="effect2_dropShadow_122_6" result="shape"/>
</filter>
<filter id="filter2_dd_122_6" x="24.3024" y="34.4001" width="29.2017" height="15.0449" filterUnits="userSpaceOnUse" color-interpolation-filters="sRGB">
<feFlood flood-opacity="0" result="BackgroundImageFix"/>
<feColorMatrix in="SourceAlpha" type="matrix" values="0 0 0 0 0 0 0 0 0 0 0 0 0 0 0 0 0 0 127 0" result="hardAlpha"/>
<feOffset dy="0.8"/>
<feGaussianBlur stdDeviation="0.8"/>
<feColorMatrix type="matrix" values="0 0 0 0 0 0 0 0 0 0 0 0 0 0 0 0 0 0 0.1 0"/>
<feBlend mode="normal" in2="BackgroundImageFix" result="effect1_dropShadow_122_6"/>
<feColorMatrix in="SourceAlpha" type="matrix" values="0 0 0 0 0 0 0 0 0 0 0 0 0 0 0 0 0 0 127 0" result="hardAlpha"/>
<feOffset dy="1.6"/>
<feGaussianBlur stdDeviation="2.4"/>
<feColorMatrix type="matrix" values="0 0 0 0 0 0 0 0 0 0 0 0 0 0 0 0 0 0 0.2 0"/>
<feBlend mode="normal" in2="effect1_dropShadow_122_6" result="effect2_dropShadow_122_6"/>
<feBlend mode="normal" in="SourceGraphic" in2="effect2_dropShadow_122_6" result="shape"/>
</filter>
<linearGradient id="paint0_linear_122_6" x1="0" y1="0" x2="64" y2="64" gradientUnits="userSpaceOnUse">
<stop stop-color="#0C0A09"/>
<stop offset="1" stop-color="#57534E"/>
</linearGradient>
<linearGradient id="paint1_linear_122_6" x1="24.2592" y1="38.5083" x2="19.8559" y2="30.8816" gradientUnits="userSpaceOnUse">
<stop stop-color="#999999"/>
<stop offset="1" stop-color="#B3B3B3"/>
</linearGradient>
<linearGradient id="paint2_linear_122_6" x1="24.2592" y1="38.5083" x2="19.8559" y2="30.8816" gradientUnits="userSpaceOnUse">
<stop stop-color="#999999"/>
<stop offset="1" stop-color="#B3B3B3"/>
</linearGradient>
<linearGradient id="paint3_linear_122_6" x1="26.1618" y1="34.1934" x2="17.9533" y2="19.9762" gradientUnits="userSpaceOnUse">
<stop stop-color="#CCCCCC"/>
<stop offset="1" stop-color="#E6E6E6"/>
</linearGradient>
<linearGradient id="paint4_linear_122_6" x1="15.9304" y1="20" x2="28.0909" y2="34.0906" gradientUnits="userSpaceOnUse">
<stop stop-color="white"/>
<stop offset="1" stop-color="#D4D4D4"/>
</linearGradient>
<linearGradient id="paint5_linear_122_6" x1="30.3957" y1="37.6001" x2="32.5714" y2="46.6232" gradientUnits="userSpaceOnUse">
<stop stop-color="white"/>
<stop offset="1" stop-color="#D4D4D4"/>
</linearGradient>
</defs>
</svg>
