<svg width="64" height="64" viewBox="0 0 64 64" fill="none" xmlns="http://www.w3.org/2000/svg">
<path d="M32 64C46.0222 64 53.8174 64 58.9087 58.9087C64 53.8174 64 46.0222 64 32C64 17.9778 64 10.1826 58.9087 5.09131C53.8174 -7.62939e-07 46.0222 0 32 0C17.9778 0 10.1826 -7.62939e-07 5.09131 5.09131C-7.62939e-07 10.1826 0 17.9778 0 32C0 46.0222 -7.62939e-07 53.8174 5.09131 58.9087C10.1826 64 17.9778 64 32 64Z" fill="url(#paint0_linear_122_29)"/>
<path d="M32.3054 40.1831C27.7248 41.1761 23.0801 41.3203 18.4835 40.5675C21.3184 45.052 26.3154 48.031 32.0171 48.031C36.998 48.031 41.4505 45.7567 44.3975 42.1851C43.6928 40.1031 42.7959 38.1171 41.7228 36.2272C41.1142 35.1381 39.5606 35.1861 38.936 36.2592C37.5746 38.5495 35.1242 40.087 32.3054 40.1831Z" fill="#DDDDDD"/>
<path d="M38.8712 27.6409C42.0744 31.0683 44.5729 34.9762 46.2866 39.3005C48.689 34.5598 48.673 28.746 45.7421 23.8611C43.1795 19.5848 38.9513 16.9261 34.3707 16.2374C32.9453 17.9191 31.696 19.7129 30.623 21.5868C29.9983 22.6759 30.8472 23.9732 32.0964 23.9732C34.7711 23.9572 37.3497 25.2705 38.8712 27.6409Z" fill="#D4D4D4"/>
<path d="M37.5094 32.0024C37.5094 31.0254 37.2692 30.1125 36.7727 29.2476C35.7957 27.5659 33.9859 26.5089 32.0319 26.5089C30.078 26.5089 28.2521 27.5659 27.2912 29.2476C26.7947 30.1125 26.5384 31.0254 26.5384 32.0024C26.5384 35.0294 29.0049 37.4799 32.0319 37.4799C35.0429 37.4959 37.5094 35.0294 37.5094 32.0024Z" fill="#999999"/>
<path d="M17.057 37.7498C19.2512 38.2143 21.4775 38.4705 23.6877 38.5025C24.9529 38.5186 25.6737 37.1412 25.049 36.0361C24.4084 34.899 24.04 33.5856 24.04 32.1922C24.04 30.8469 24.3924 29.5176 25.049 28.3324C26.5545 23.7197 28.7968 19.6196 31.7598 16C23.031 16.1442 16 23.2553 16 32.0161C16 34.0341 16.3683 35.972 17.057 37.7498Z" fill="#EEEEEE"/>
<defs>
<linearGradient id="paint0_linear_122_29" x1="0" y1="0" x2="64" y2="64" gradientUnits="userSpaceOnUse">
<stop stop-color="#0C0A09"/>
<stop offset="1" stop-color="#57534E"/>
</linearGradient>
</defs>
</svg>
