<svg width="64" height="64" viewBox="0 0 64 64" fill="none" xmlns="http://www.w3.org/2000/svg">
<path d="M32 64C46.0222 64 53.8174 64 58.9087 58.9087C64 53.8174 64 46.0222 64 32C64 17.9778 64 10.1826 58.9087 5.09131C53.8174 -7.62939e-07 46.0222 0 32 0C17.9778 0 10.1826 -7.62939e-07 5.09131 5.09131C-7.62939e-07 10.1826 0 17.9778 0 32C0 46.0222 -7.62939e-07 53.8174 5.09131 58.9087C10.1826 64 17.9778 64 32 64Z" fill="#FAFAF9"/>
<rect x="24" y="31" width="16" height="2" rx="1" fill="#D6D3D1"/>
<rect x="33" y="24" width="16" height="2" rx="1" transform="rotate(90 33 24)" fill="#D6D3D1"/>
</svg>
